<svg xmlns="http://www.w3.org/2000/svg" width="50" height="50" viewBox="0 0 50 50">
  <g id="ACG" transform="translate(-1035.722 -3820.722)">
    <rect id="Retângulo_5369" data-name="Retângulo 5369" width="50" height="50" transform="translate(1035.722 3820.722)" fill="#098838" opacity="0"/>
    <g id="Tabelas_e_Jogos_do_Brasileirão_Série_A_2024___ge___brasileirão_série_a___ge-10" data-name="Tabelas e Jogos do Brasileirão Série A 2024 _ ge _ brasileirão série a _ ge-10" transform="translate(1046.513 3826.471)">
      <path id="Caminho_2272" data-name="Caminho 2272" d="M104.524,126.65c0,.05,0,.1,0,.151v11.23a.394.394,0,0,1-.092.261q-6.825,8.7-13.648,17.394c-.015.02-.032.038-.057.068l-.6-.759L77.024,138.285c-.023-.03-.034-.08-.084-.08V126.657c.043,0,.067.031.1.053l.763.554c0,.054.008.109.008.16v10.324a.32.32,0,0,0,.072.218q1.3,1.656,2.6,3.315c.021.026.035.063.084.072V129.314c.053,0,.08.038.112.062l2.294,1.677a.245.245,0,0,1,.116.225q-.007,6.583-.007,13.172a.413.413,0,0,0,.094.273q1.251,1.586,2.5,3.176c.049.064.1.126.171.212V133.325c0-.055,0-.109,0-.164l.1.071.757.542c0,.054.006.109.006.16v15.152a.377.377,0,0,0,.088.251q1.567,1.992,3.131,3.989l.8,1.027c.014-.02.021-.03.029-.04q1.97-2.511,3.94-5.019a.226.226,0,0,0,.049-.149V136.312c0-.026.017-.06-.026-.08l-.08.06-2.551,2.065a.25.25,0,0,0-.1.221v11.774a.22.22,0,0,1-.037.165c-.407.474-.811.951-1.22,1.431-.033-.035-.061-.066-.087-.1-.362-.425-.721-.852-1.086-1.274a.35.35,0,0,1-.092-.247v-14.51c.036.022.073.04.107.064.352.256.7.512,1.054.773a.135.135,0,0,0,.194,0q1.275-.939,2.551-1.872,1.116-.816,2.232-1.63c0,.054,0,.109,0,.16v14.634a.232.232,0,0,0,.017.143c.029-.037.053-.066.08-.1q3.914-4.99,7.831-9.978a.516.516,0,0,0,.116-.343q0-5.129,0-10.259c0-.054.006-.109.008-.16Z" transform="translate(-76.939 -117.252)" fill="#010101"/>
      <path id="Caminho_2273" data-name="Caminho 2273" d="M104.515,18.4l-.855.613c0-.344-.007-.689-.009-1.032s0-.689,0-1.033c0-.09-.022-.105-.1-.054s-.127.08-.191.121l-3.656,2.3c-.047.03-.1.05-.1.128,0,.84.006,1.677.007,2.519l-1.242.907c0-.029-.007-.058-.007-.087V13.278a.134.134,0,0,1,.108-.151q1.142-.417,2.282-.843c.132-.049.133-.049.133.093v4.254l.08-.038,2.6-1.423c.08-.044.08-.1.08-.175V10.282c0-.155,0-.156-.142-.118l-7.756,2.077c-.114.03-.147.073-.147.192q.006,6.164,0,12.329c0,.05,0,.1,0,.151l-2.232,1.63q-1.275.934-2.551,1.872a.135.135,0,0,1-.194,0c-.349-.261-.7-.517-1.054-.773-.033-.024-.071-.042-.107-.063V15.651c0-.091.013-.117.109-.08.292.113.593.206.877.329a.641.641,0,0,0,.548,0c.319-.135.646-.24.988-.368v6l.047-.017,2.642-1.45c.067-.037.066-.086.066-.145V12.648c0-.1-.01-.132-.122-.1q-1.88.506-3.765,1.006a.5.5,0,0,1-.269,0q-1.859-.5-3.719-1c-.159-.043-.159-.042-.159.121V25.359a1.607,1.607,0,0,1-.006.164l-.757-.542-.1-.071c0-.05,0-.1,0-.151V12.429c0-.109-.022-.154-.137-.185l-7.755-2.077c-.148-.04-.148-.04-.148.111v8.582c0,.05-.006.1-.009.15l-.763-.554c-.03-.022-.053-.056-.1-.053V9c.338.086.677.17,1.014.26l7.507,2.011,5.195,1.392a.3.3,0,0,0,.169,0q4.65-1.248,9.3-2.492l4.3-1.149c.091-.025.1-.01.1.08v9.266A.317.317,0,0,1,104.515,18.4Z" transform="translate(-76.93 -9)" fill="#dc1212"/>
      <path id="Caminho_2274" data-name="Caminho 2274" d="M199.5,66.171c0-.054.006-.109.006-.164V53.323c0-.164,0-.165.16-.121l3.73,1a.5.5,0,0,0,.269,0c1.258-.339,2.518-.673,3.776-1.014.113-.03.122,0,.122.1v7.274c0,.059,0,.109-.066.145q-1.325.719-2.648,1.45l-.047.017v-6c-.343.125-.673.233-.991.368a.644.644,0,0,1-.549,0c-.288-.123-.59-.216-.879-.329-.1-.038-.109-.012-.109.08V82.73a.349.349,0,0,0,.093.247c.366.423.726.849,1.089,1.274.026.031.054.062.087.1.41-.479.815-.959,1.223-1.431a.22.22,0,0,0,.037-.165V70.978a.25.25,0,0,1,.1-.221q1.278-1.029,2.556-2.065l.08-.06c.043.017.026.051.026.08V81.545a.226.226,0,0,1-.049.149q-1.983,2.506-3.956,5.019c-.008.01-.015.02-.029.04l-.806-1.024q-1.568-2-3.138-3.989a.376.376,0,0,1-.088-.251V66.337C199.506,66.28,199.5,66.225,199.5,66.171Z" transform="translate(-189.739 -49.648)" fill="#fefefe"/>
      <path id="Caminho_2275" data-name="Caminho 2275" d="M87.71,32.195c0-.05.009-.1.009-.15V23.462c0-.151,0-.151.149-.111l7.772,2.077c.115.03.137.075.137.185q0,6.164,0,12.329c0,.05,0,.1,0,.151s0,.109,0,.164V53.044c-.07-.086-.122-.149-.172-.212l-2.5-3.176a.412.412,0,0,1-.094-.273q0-6.587,0-13.173a.244.244,0,0,0-.116-.225q-1.153-.834-2.3-1.677c-.032-.023-.058-.06-.112-.062V46.287c-.05-.009-.064-.046-.085-.072q-1.311-1.657-2.613-3.315a.32.32,0,0,1-.072-.218V32.358C87.718,32.3,87.713,32.248,87.71,32.195Zm5.3,1.142c0-.047,0-.072,0-.1V26.457a.128.128,0,0,0-.1-.141c-.771-.281-1.541-.567-2.312-.85-.033-.012-.066-.042-.109-.019V31.66a.16.16,0,0,0,.087.148q.8.5,1.589,1Z" transform="translate(-86.849 -22.184)" fill="#fefefe"/>
      <path id="Caminho_2276" data-name="Caminho 2276" d="M315.237,35.134c0-.84,0-1.677-.007-2.519,0-.08.049-.1.1-.128l3.664-2.3c.064-.04.129-.08.191-.121s.1-.037.1.054V31.15c0,.343.006.688.009,1.032,0,.054-.008.109-.008.16V42.6a.515.515,0,0,1-.116.343q-3.926,4.99-7.847,9.981c-.023.03-.047.058-.08.1a.232.232,0,0,1-.017-.143V38.242c0-.054,0-.109,0-.16s0-.1,0-.151V25.6c0-.118.033-.16.147-.192q3.887-1.033,7.772-2.077c.142-.038.143-.037.142.118v4.713c0,.073,0,.131-.08.175q-1.3.708-2.6,1.423c-.018.01-.037.018-.08.038V25.548c0-.141,0-.141-.133-.093-.762.282-1.524.565-2.287.843a.134.134,0,0,0-.108.151v9.506c0,.029,0,.058.007.087a.822.822,0,0,0-.007.088V47.778c0,.03-.018.068.026.09.03-.034.061-.068.09-.1q1.146-1.341,2.293-2.681a.455.455,0,0,0,.118-.326V34.222c-.048.032-.08.054-.114.08Z" transform="translate(-292.558 -22.17)" fill="#fefefe"/>
      <path id="Caminho_2277" data-name="Caminho 2277" d="M347.137,160.7l1.162-.84c.032-.023.066-.045.114-.08v10.537a.454.454,0,0,1-.118.326q-1.152,1.336-2.293,2.681c-.03.035-.06.069-.09.1-.044-.022-.026-.061-.026-.09V161.688a.814.814,0,0,1,.007-.088Z" transform="translate(-324.458 -147.736)" fill="#010101"/>
      <path id="Caminho_2278" data-name="Caminho 2278" d="M124.914,57.7l-.849-.53-1.589-1a.16.16,0,0,1-.087-.148V49.816c.043-.022.08.007.109.019.771.283,1.541.569,2.312.85a.128.128,0,0,1,.1.141V57.7Z" transform="translate(-118.758 -46.548)" fill="#dc1212"/>
    </g>
  </g>
</svg>
