<svg xmlns="http://www.w3.org/2000/svg" width="50" height="50" viewBox="0 0 50 50">
  <g id="BOT" transform="translate(-1035.722 -3820.722)">
    <rect id="Retângulo_5369" data-name="Retângulo 5369" width="50" height="50" transform="translate(1035.722 3820.722)" fill="#098838" opacity="0"/>
    <g id="Tabelas_e_Jogos_do_Brasileirão_Série_A_2024___ge___brasileirão_série_a___ge-14" data-name="Tabelas e Jogos do Brasileirão Série A 2024 _ ge _ brasileirão série a _ ge-14" transform="translate(995.608 3816.722)">
      <path id="Caminho_2330" data-name="Caminho 2330" d="M56.793,12.441c-2.2,1.131-4.267,2.2-7.026,2.21l-1.429.007-.093,1.429C47.63,25.9,48.6,39.9,64.077,48.015l.708.37.708-.37C80.974,39.9,81.94,25.9,81.325,16.087l-.093-1.429L79.8,14.651c-2.759-.007-4.83-1.078-7.026-2.2C70.455,11.244,68.04,10,64.791,10s-5.663,1.244-8,2.441" transform="translate(0)" fill-rule="evenodd"/>
      <path id="Caminho_2331" data-name="Caminho 2331" d="M86.491,68.224c-13.08-6.861-15.8-18.068-15.018-30.48,6.173-.02,9.183-4.644,15.018-4.644s8.845,4.625,15.018,4.644c.781,12.411-1.938,23.619-15.018,30.48" transform="translate(-21.699 -21.572)" fill="#fff" fill-rule="evenodd"/>
      <path id="Caminho_2332" data-name="Caminho 2332" d="M108.835,65.944c2.137-1.1,3.983-2.044,6.365-2.044s4.234.946,6.365,2.044a20.743,20.743,0,0,0,6.7,2.448c.02.6.033,1.191.033,1.773,0,11.763-4.135,19.431-13.1,24.492-8.965-5.061-13.1-12.729-13.1-24.492,0-.582.013-1.171.033-1.773a20.743,20.743,0,0,0,6.7-2.448" transform="translate(-50.415 -50.334)" fill-rule="evenodd"/>
      <path id="Caminho_2333" data-name="Caminho 2333" d="M163.486,121.6l2.283,7.033h7.4l-5.981,4.347,2.283,7.039-5.981-4.353-5.987,4.353,2.289-7.039-5.987-4.347h7.4Z" transform="translate(-98.694 -104.217)" fill="#fff" fill-rule="evenodd"/>
    </g>
  </g>
</svg>
