<svg xmlns="http://www.w3.org/2000/svg" width="50" height="50" viewBox="0 0 50 50">
  <g id="CAM" transform="translate(-1035.846 -3820.846)">
    <rect id="Retângulo_5369" data-name="Retângulo 5369" width="50" height="50" transform="translate(1035.846 3820.846)" fill="#098838" opacity="0"/>
    <g id="Tabelas_e_Jogos_do_Brasileirão_Série_A_2024___ge___brasileirão_série_a___ge-17" data-name="Tabelas e Jogos do Brasileirão Série A 2024 _ ge _ brasileirão série a _ ge-17" transform="translate(1043.675 3825.145)">
      <g id="XMLID_2_">
        <g id="Grupo_9580" data-name="Grupo 9580">
          <path id="Caminho_2356" data-name="Caminho 2356" d="M34.343,9.944v.989c-.049.38-.034.766-.063,1.148a35.343,35.343,0,0,1-4.26,15.159c-.359.7-.784,1.361-1.181,2.039-.352.536-.7,1.073-1.065,1.6-.488.65-.945,1.324-1.468,1.947-.4.481-.775.979-1.2,1.436-.45.491-.876,1-1.352,1.469-.38.383-.758.769-1.141,1.15-.413.383-.831.761-1.246,1.143-.5.474-1.051.9-1.577,1.343-.837.722-1.761,1.335-2.615,2.034h-.051c0-.009-.006-.028-.009-.038-.859-.679-1.766-1.3-2.6-2.012-.536-.454-1.093-.884-1.6-1.367-.546-.509-1.114-.994-1.63-1.533-.463-.477-.95-.933-1.387-1.435-.354-.4-.713-.788-1.062-1.187-.594-.736-1.21-1.454-1.754-2.228-.57-.744-1.073-1.535-1.59-2.317-.416-.705-.857-1.4-1.23-2.128A35.3,35.3,0,0,1,.028,11.638c-.007-.208,0-.416-.028-.624V9.909c.033-.282.023-.566.039-.848A22.743,22.743,0,0,1,.485,5.318a20.467,20.467,0,0,0,2.539.695,13.366,13.366,0,0,0,5.208.025,13.858,13.858,0,0,0,6.1-2.957A14.257,14.257,0,0,0,17.167,0a12.931,12.931,0,0,0,1.882,2.237,14.531,14.531,0,0,0,5.674,3.448,12.992,12.992,0,0,0,5.681.473,17.68,17.68,0,0,0,3.435-.843A23.463,23.463,0,0,1,34.306,9.5,3.159,3.159,0,0,0,34.343,9.944Z" fill="#fff"/>
        </g>
      </g>
      <g id="Grupo_9581" data-name="Grupo 9581" transform="translate(0.295 0.511)">
        <path id="Caminho_2357" data-name="Caminho 2357" d="M21.8,11.859A13.753,13.753,0,0,0,22.927,10.5a14.765,14.765,0,0,0,2.631,2.781,14.438,14.438,0,0,0,5,2.72,13.4,13.4,0,0,0,5.9.4,16.394,16.394,0,0,0,2.929-.728,23.693,23.693,0,0,1,.391,3.714,34.643,34.643,0,0,1-2.065,12.863A36.074,36.074,0,0,1,33.443,40.5,43.584,43.584,0,0,1,22.921,51.023a47.243,47.243,0,0,1-6.335-5.44,38.69,38.69,0,0,1-6.226-8.4,34.926,34.926,0,0,1-4.29-17.753,24.3,24.3,0,0,1,.39-3.757,15.274,15.274,0,0,0,5.532.874A13.268,13.268,0,0,0,17.7,15.009,15.711,15.711,0,0,0,21.8,11.859Zm1.119.8a14.085,14.085,0,0,1-3.416,2.885A15.321,15.321,0,0,1,14,17.612a17.226,17.226,0,0,1-6.461-.2c-.077.46-.126.926-.165,1.391a30.727,30.727,0,0,0,.594,8.537,33.307,33.307,0,0,0,1.891,6.087,35.52,35.52,0,0,0,5.857,9.421,43.388,43.388,0,0,0,7.206,6.634,43.8,43.8,0,0,0,6.436-5.76,36.527,36.527,0,0,0,5.276-7.44A33.361,33.361,0,0,0,38.37,24.215a27.035,27.035,0,0,0-.063-6.806,17.009,17.009,0,0,1-7.313.036,15.39,15.39,0,0,1-5.582-2.511A13.389,13.389,0,0,1,22.923,12.664Z" transform="translate(-6.054 -10.5)" fill="#1f1a17"/>
      </g>
      <g id="Grupo_9582" data-name="Grupo 9582" transform="translate(2.286 3.719)">
        <path id="Caminho_2358" data-name="Caminho 2358" d="M58.879,78.82A14.2,14.2,0,0,0,61.8,76.34a13.244,13.244,0,0,0,2.317,2.071,15.4,15.4,0,0,0,5.7,2.536,16.177,16.177,0,0,0,6.671-.014,21.208,21.208,0,0,1,.18,3.233,29.627,29.627,0,0,1-.4,4.445q-14.474-.005-28.949,0a30.4,30.4,0,0,1-.394-4.151,21.7,21.7,0,0,1,.176-3.526,16.291,16.291,0,0,0,6.153.117A15.317,15.317,0,0,0,58.879,78.82Zm-6.843,3.524a2.48,2.48,0,0,0-1.3,1.055,3.017,3.017,0,0,0-.292,2.359A2.566,2.566,0,0,0,51.6,87.28a2.9,2.9,0,0,0,2.247.232A2.213,2.213,0,0,0,55.2,86.506q-.573-.353-1.147-.7a1.07,1.07,0,0,1-.839.632,1.211,1.211,0,0,1-1.061-.238,1.712,1.712,0,0,1-.465-1.254,1.778,1.778,0,0,1,.431-1.282,1.165,1.165,0,0,1,.986-.289,1.18,1.18,0,0,1,.929.513c.374-.226.742-.461,1.12-.682a1.9,1.9,0,0,0-.7-.626A3.02,3.02,0,0,0,52.036,82.343Zm8.542-.04c-.643,1.742-1.3,3.48-1.949,5.221.466.006.932,0,1.4,0,.112-.312.218-.627.332-.938.606,0,1.213,0,1.82,0,.109.312.214.626.324.938.473,0,.946,0,1.419,0q-.981-2.61-1.954-5.224C61.5,82.3,61.041,82.293,60.578,82.3Zm6.712,0v5.227h1.281c0-1.309,0-2.619,0-3.928.386,1.3.738,2.619,1.11,3.928.348,0,.7.007,1.045,0,.352-1.3.72-2.6,1.077-3.9a2.278,2.278,0,0,1,.019.259c0,1.216.01,2.432.012,3.648.428.006.855,0,1.283,0-.006-1.743.008-3.487-.007-5.23-.665.008-1.33,0-1.995,0-.308,1.156-.6,2.316-.9,3.473-.32-1.153-.609-2.314-.919-3.47Z" transform="translate(-46.922 -76.34)" fill="#1f1a17"/>
      </g>
      <path id="Caminho_2359" data-name="Caminho 2359" d="M329.18,230.532c.2-.6.38-1.214.6-1.812.194.605.392,1.21.587,1.816C329.971,230.534,329.575,230.54,329.18,230.532Z" transform="translate(-313.145 -217.578)" fill="#1f1a17"/>
      <path id="Caminho_2360" data-name="Caminho 2360" d="M59.13,349.94q2.565,0,5.129,0,0,6.02,0,12.04A32.442,32.442,0,0,1,59.13,349.94Z" transform="translate(-56.25 -332.893)" fill="#1f1a17"/>
      <path id="Caminho_2361" data-name="Caminho 2361" d="M189.087,349.945c1.5,0,3.005,0,4.508,0q0,9.281,0,18.561a37.448,37.448,0,0,1-3.473-3.582c-.35-.425-.719-.841-1.032-1.291C189.082,359.071,189.089,354.508,189.087,349.945Z" transform="translate(-179.875 -332.897)" fill="#1f1a17"/>
      <path id="Caminho_2362" data-name="Caminho 2362" d="M306.231,349.951q2.254,0,4.508,0-.006,9.805,0,19.611c-.739.614-1.489,1.218-2.265,1.786-.761-.574-1.517-1.158-2.241-1.78Q306.237,359.76,306.231,349.951Z" transform="translate(-291.313 -332.903)" fill="#1f1a17"/>
      <path id="Caminho_2363" data-name="Caminho 2363" d="M423.43,349.946c1.5-.005,3.005,0,4.508,0q0,6.84,0,13.68a38.592,38.592,0,0,1-4.505,4.87Q423.429,359.22,423.43,349.946Z" transform="translate(-402.803 -332.897)" fill="#1f1a17"/>
      <path id="Caminho_2364" data-name="Caminho 2364" d="M540.626,349.94h5.108a32.5,32.5,0,0,1-4.426,10.987c-.222.339-.427.69-.678,1.009C540.62,357.938,540.63,353.939,540.626,349.94Z" transform="translate(-514.29 -332.893)" fill="#1f1a17"/>
    </g>
  </g>
</svg>
