<svg xmlns="http://www.w3.org/2000/svg" width="50" height="50" viewBox="0 0 50 50">
  <g id="COR" transform="translate(-1035.846 -3820.846)">
    <rect id="Retângulo_5369" data-name="Retângulo 5369" width="50" height="50" transform="translate(1035.846 3820.846)" fill="#098838" opacity="0"/>
    <g id="Tabelas_e_Jogos_do_Brasileirão_Série_A_2024___ge___brasileirão_série_a___ge-19" data-name="Tabelas e Jogos do Brasileirão Série A 2024 _ ge _ brasileirão série a _ ge-19" transform="translate(979.786 3822.194)">
      <path id="Caminho_2393" data-name="Caminho 2393" d="M81.063,2.79C76.851,5.937,71.025,8.483,64.57,10.8c.2,7.772.031,11.939,1.727,17.1,2.426,7.354,7.857,12.576,14.766,16.617C87.963,40.471,93.4,35.25,95.819,27.9c1.7-5.159,1.527-9.326,1.731-17.1C91.1,8.483,85.265,5.937,81.063,2.79Z" transform="translate(0 0)" fill="#016c32" fill-rule="evenodd"/>
      <path id="Caminho_2394" data-name="Caminho 2394" d="M120.226,36.07c-3.441,2.671-8.222,4.83-13.506,6.789V51.5h27.016V42.858c-5.284-1.958-10.065-4.117-13.51-6.788Z" transform="translate(-39.168 -30.925)" fill="#ffdb01" fill-rule="evenodd"/>
      <path id="Caminho_2395" data-name="Caminho 2395" d="M262.581,469.151v.321H261.37a.749.749,0,0,1,.116-.347,2.275,2.275,0,0,1,.387-.437,2.056,2.056,0,0,0,.285-.3.361.361,0,0,0,.071-.209.212.212,0,0,0-.231-.245.218.218,0,0,0-.169.066.344.344,0,0,0-.076.218l-.342-.031a.571.571,0,0,1,.192-.418.664.664,0,0,1,.405-.12.575.575,0,0,1,.418.142.467.467,0,0,1,.156.361.684.684,0,0,1-.045.236,1.193,1.193,0,0,1-.138.231,2.768,2.768,0,0,1-.227.227c-.111.1-.178.169-.209.2a.626.626,0,0,0-.071.1h.689Zm0,0Zm.819-1.5a.5.5,0,0,1,.41.187,1.619,1.619,0,0,1,0,1.477.493.493,0,0,1-.41.187.509.509,0,0,1-.423-.2,1.213,1.213,0,0,1-.16-.726,1.24,1.24,0,0,1,.173-.739.489.489,0,0,1,.41-.182Zm0,0Zm0,.284a.178.178,0,0,0-.111.04.254.254,0,0,0-.071.147,1.828,1.828,0,0,0-.035.454,1.94,1.94,0,0,0,.031.437.271.271,0,0,0,.08.165.158.158,0,0,0,.107.04.154.154,0,0,0,.111-.045.248.248,0,0,0,.076-.147,2.059,2.059,0,0,0,.035-.449,2.243,2.243,0,0,0-.031-.437.327.327,0,0,0-.08-.165.167.167,0,0,0-.111-.041Zm0,0Zm1.4-.284a.5.5,0,0,1,.41.187,1.185,1.185,0,0,1,.178.739,1.154,1.154,0,0,1-.183.739.485.485,0,0,1-.405.187.511.511,0,0,1-.427-.2,1.668,1.668,0,0,1,.018-1.465.485.485,0,0,1,.41-.182Zm0,0Zm0,.284a.162.162,0,0,0-.111.04.282.282,0,0,0-.076.147,2.113,2.113,0,0,0-.035.454,1.943,1.943,0,0,0,.031.437.327.327,0,0,0,.08.165.162.162,0,0,0,.111.04.144.144,0,0,0,.107-.045.227.227,0,0,0,.076-.147,2.056,2.056,0,0,0,.035-.449,1.94,1.94,0,0,0-.031-.437.327.327,0,0,0-.08-.165.156.156,0,0,0-.107-.041Zm0,0Zm1.7,1.536h-.342v-1.309a1.276,1.276,0,0,1-.445.262v-.32a.96.96,0,0,0,.289-.169.628.628,0,0,0,.218-.285h.28v1.821Z" transform="translate(-182.876 -431.969)" fill="#fff" fill-rule="evenodd"/>
      <path id="Caminho_2396" data-name="Caminho 2396" d="M297.61,74.186h2.928L297.61,60.48Z" transform="translate(-216.552 -53.608)" fill="#015a28" fill-rule="evenodd"/>
      <path id="Caminho_2397" data-name="Caminho 2397" d="M256.27,74.186H259.2V60.48Z" transform="translate(-178.137 -53.608)" fill="#018c35" fill-rule="evenodd"/>
      <path id="Caminho_2398" data-name="Caminho 2398" d="M140.467,281.263h2.2a.805.805,0,0,0,.779-.837v-2.617h-.944v2.617a.3.3,0,0,1-.294.316h-1.291a.3.3,0,0,1-.294-.316v-2.617h-.944v2.617a.809.809,0,0,0,.784.837Zm0,0Zm-2.4-1.349h.944v.512a.806.806,0,0,1-.783.837h-2.15a.806.806,0,0,1-.783-.837v-1.781a.809.809,0,0,1,.783-.837h2.15a.808.808,0,0,1,.783.837v.565h-.94l0-.227a.309.309,0,0,0-.294-.321h-1.247a.309.309,0,0,0-.294.321v1.162a.3.3,0,0,0,.294.311h1.247a.3.3,0,0,0,.294-.311v-.231Zm0,0Zm6.063,1.349h.944v-3.454h-.944v3.454Zm0,0Zm4.4,0h.944v-2.617a.811.811,0,0,0-.779-.837H146.53a.811.811,0,0,0-.783.837v2.617h.944v-1.469h1.834v1.469Zm0,0Zm0-2.052H146.69v-.405a.3.3,0,0,1,.294-.316h1.247a.3.3,0,0,1,.294.316v.405Zm0,0Zm1.62,2.052h2.943a.805.805,0,0,0,.779-.837v-.311a.869.869,0,0,0-.209-.579c.134-.156.209-.214.209-.432v-.458a.808.808,0,0,0-.779-.837h-2.943v3.454Zm0,0Zm2.783-2.052h-1.843v-.405a.309.309,0,0,1,.3-.316h1.251a.307.307,0,0,1,.294.316v.405Zm0,0Zm0,.645h-1.843v.41a.309.309,0,0,0,.3.316h1.251a.307.307,0,0,0,.294-.316v-.41Zm0,0Zm4.4,1.407h.94v-2.617a.808.808,0,0,0-.779-.837h-2.154a.808.808,0,0,0-.783.837v2.617h.94v-1.469h1.838v1.469Zm0,0Zm0-2.052h-1.838v-.405a.308.308,0,0,1,.294-.316h1.247a.308.308,0,0,1,.3.316v.405Zm0,0Zm-.971-1.656.686-1.1h-.583l-.686,1.1Z" transform="translate(-65.716 -254.307)" fill="#fff" fill-rule="evenodd"/>
      <path id="Caminho_2399" data-name="Caminho 2399" d="M138.15,360.73h1.1v-.2h-1.1a.119.119,0,0,1-.107-.125v-.245h1.211v-.2h-1.211v-.245a.115.115,0,0,1,.107-.12h1.1v-.2h-1.1a.3.3,0,0,0-.28.32v.694a.3.3,0,0,0,.28.325Zm0,0Zm1.642,0h1.1a.306.306,0,0,0,.285-.325v-.12a.313.313,0,0,0-.285-.33h-.855a.112.112,0,0,1-.107-.12v-.125a.112.112,0,0,1,.107-.12h1.1v-.2h-1.1a.3.3,0,0,0-.285.321v.125a.305.305,0,0,0,.285.325h.855a.116.116,0,0,1,.107.125v.12a.116.116,0,0,1-.107.125h-1.1v.2Zm0,0Zm1.883,0h.173v-1.14h.966a.115.115,0,0,1,.107.12v.125a.115.115,0,0,1-.107.12h-.886v.2h.886a.305.305,0,0,0,.28-.325v-.125a.3.3,0,0,0-.28-.321h-1.14v1.34Zm0,0Zm2.208,0h.859a.3.3,0,0,0,.28-.325v-.694a.3.3,0,0,0-.28-.32h-.859a.3.3,0,0,0-.285.32v.694a.307.307,0,0,0,.285.325Zm0,0Zm0-1.14h.859a.115.115,0,0,1,.107.12v.694a.119.119,0,0,1-.107.125h-.859a.119.119,0,0,1-.107-.125v-.694a.115.115,0,0,1,.107-.12Zm0,0Zm2.889,1.14h.173v-.445a.346.346,0,0,0-.076-.223.376.376,0,0,0,.076-.227v-.125a.3.3,0,0,0-.28-.321h-1.144v1.34h.178v-1.14h.966a.115.115,0,0,1,.107.12v.125a.115.115,0,0,1-.107.12h-.89v.2h.89a.119.119,0,0,1,.107.125v.446Zm0,0Zm1.3,0h.178v-1.14h.623v-.2h-1.424v.2h.623v1.14Zm0,0Zm1.585,0h1.1v-.2h-1.1a.116.116,0,0,1-.107-.125v-.245h1.206v-.2h-1.206v-.245a.112.112,0,0,1,.107-.12h1.1v-.2h-1.1a.3.3,0,0,0-.285.32v.694a.3.3,0,0,0,.285.325Zm0,0Zm2.319,0h1.1v-.2h-1.1a.116.116,0,0,1-.107-.125v-.694a.112.112,0,0,1,.107-.12h1.1v-.2h-1.1a.3.3,0,0,0-.285.32v.694a.3.3,0,0,0,.285.325Zm0,0Zm1.883,0h1.024v-.2h-1.024a.119.119,0,0,1-.107-.125v-1.015h-.178v1.015a.307.307,0,0,0,.285.325Zm0,0Zm1.861,0h.859a.3.3,0,0,0,.28-.325v-1.015h-.173v1.015a.119.119,0,0,1-.107.125h-.859a.119.119,0,0,1-.107-.125v-1.015h-.178v1.015a.307.307,0,0,0,.285.325Zm0,0Zm1.638,0H158.5a.3.3,0,0,0,.28-.325v-.12a.346.346,0,0,0-.076-.223c.049-.067.076-.089.076-.173v-.178a.3.3,0,0,0-.28-.321h-1.144v1.34Zm0,0Zm1.144-.2h-.966v-.94h.966a.115.115,0,0,1,.107.12v.178c0,.067-.049.067-.107.067h-.89v.2h.89a.119.119,0,0,1,.107.125v.12a.119.119,0,0,1-.107.125Zm0,0Zm1.064.2h1.1v-.2h-1.1a.119.119,0,0,1-.107-.125v-.245h1.206v-.2h-1.206v-.245a.115.115,0,0,1,.107-.12h1.1v-.2h-1.1a.3.3,0,0,0-.285.32v.694a.3.3,0,0,0,.285.325Z" transform="translate(-68.114 -331.369)" fill="#ffdb01" fill-rule="evenodd"/>
      <path id="Caminho_2400" data-name="Caminho 2400" d="M137.388,359.97h1.046v-.089h-1.046a.155.155,0,0,1-.12-.058.189.189,0,0,1-.045-.12v-.3h1.211v-.093h-1.211v-.3a.192.192,0,0,1,.045-.125.154.154,0,0,1,.12-.054h1.046v-.089h-1.046a.214.214,0,0,0-.16.071.293.293,0,0,0-.071.2v.694a.283.283,0,0,0,.071.192.2.2,0,0,0,.16.076Zm0,0Zm1.1.111h-1.1a.322.322,0,0,1-.245-.116.4.4,0,0,1-.093-.262v-.694a.411.411,0,0,1,.093-.267.317.317,0,0,1,.245-.111h1.158v.311h-1.158a.048.048,0,0,0-.035.013.094.094,0,0,0-.018.054v.187h1.211v.316h-1.211v.192a.1.1,0,0,0,.018.049.053.053,0,0,0,.035.018h1.158v.312h-.058Zm0,0Zm.6-.111h1.046a.2.2,0,0,0,.156-.076.282.282,0,0,0,.071-.192v-.125a.283.283,0,0,0-.071-.192.2.2,0,0,0-.156-.08h-.859a.157.157,0,0,1-.116-.054.172.172,0,0,1-.045-.125v-.12a.172.172,0,0,1,.045-.125.145.145,0,0,1,.116-.054h1.046v-.089h-1.046a.214.214,0,0,0-.16.071.313.313,0,0,0-.067.2v.12a.307.307,0,0,0,.067.192.2.2,0,0,0,.16.08h.859a.147.147,0,0,1,.116.058.189.189,0,0,1,.045.12v.125a.189.189,0,0,1-.045.12.149.149,0,0,1-.116.058h-1.046v.089Zm0,0Zm1.046.111h-1.157v-.312h1.157a.047.047,0,0,0,.031-.018.066.066,0,0,0,.018-.049v-.125a.066.066,0,0,0-.018-.049.044.044,0,0,0-.031-.018h-.859a.311.311,0,0,1-.241-.111.423.423,0,0,1-.1-.272v-.12a.392.392,0,0,1,.1-.267.309.309,0,0,1,.241-.111h1.157v.311h-1.157a.04.04,0,0,0-.031.013.071.071,0,0,0-.018.054v.12a.069.069,0,0,0,.013.049.04.04,0,0,0,.035.018h.859a.32.32,0,0,1,.241.116.426.426,0,0,1,.1.267v.125a.406.406,0,0,1-.1.262.318.318,0,0,1-.241.115Zm0,0Zm.837-.111h.062v-1.14h1.024a.149.149,0,0,1,.116.054.192.192,0,0,1,.045.125v.12a.192.192,0,0,1-.045.125.167.167,0,0,1-.116.054h-.832v.093h.833a.194.194,0,0,0,.156-.08.279.279,0,0,0,.066-.192v-.12a.29.29,0,0,0-.066-.2.213.213,0,0,0-.156-.071h-1.086v1.229Zm0,0Zm.12.111h-.232V358.63h1.2a.317.317,0,0,1,.241.111.413.413,0,0,1,.093.267v.12a.444.444,0,0,1-.093.272.315.315,0,0,1-.241.111h-.912v.57Zm0,0Zm.054-1.139v.254h.912a.033.033,0,0,0,.031-.018.056.056,0,0,0,.018-.049v-.12a.072.072,0,0,0-.018-.054.047.047,0,0,0-.031-.013Zm0,0Zm1.98,1.028h.855a.2.2,0,0,0,.16-.076.3.3,0,0,0,.066-.192v-.694a.317.317,0,0,0-.066-.2.215.215,0,0,0-.16-.071h-.855a.214.214,0,0,0-.16.071.293.293,0,0,0-.071.2v.694a.283.283,0,0,0,.071.192.2.2,0,0,0,.16.076Zm0,0Zm.855.111h-.855a.322.322,0,0,1-.245-.116.4.4,0,0,1-.1-.262v-.694a.418.418,0,0,1,.1-.267.317.317,0,0,1,.245-.111h.855a.32.32,0,0,1,.245.111.413.413,0,0,1,.093.267v.694a.4.4,0,0,1-.093.262.318.318,0,0,1-.245.116Zm0,0Zm-.855-1.25h.855a.152.152,0,0,1,.12.054.192.192,0,0,1,.045.125v.694a.189.189,0,0,1-.045.12.158.158,0,0,1-.12.058h-.855a.155.155,0,0,1-.12-.058.189.189,0,0,1-.045-.12v-.694a.192.192,0,0,1,.045-.125.152.152,0,0,1,.12-.054Zm0,0Zm.855.111h-.855a.048.048,0,0,0-.035.013.094.094,0,0,0-.018.054v.694a.1.1,0,0,0,.018.049.053.053,0,0,0,.035.018h.855a.055.055,0,0,0,.035-.018.091.091,0,0,0,.018-.049v-.694a.1.1,0,0,0-.018-.054.048.048,0,0,0-.035-.013Zm0,0Zm2.088,1.028h.062v-.392a.261.261,0,0,0-.018-.1h0a.325.325,0,0,0-.045-.085l-.031-.04.031-.035a.255.255,0,0,0,.045-.085h0a.259.259,0,0,0,.018-.1v-.12a.317.317,0,0,0-.067-.2.215.215,0,0,0-.16-.071h-1.086v1.228h.066v-1.14h1.02a.152.152,0,0,1,.12.054.192.192,0,0,1,.045.125v.12a.192.192,0,0,1-.045.125.169.169,0,0,1-.12.054h-.833v.093h.833a.155.155,0,0,1,.12.058.189.189,0,0,1,.045.12v.393Zm0,0Zm.12.111h-.232v-.5a.1.1,0,0,0-.018-.049.053.053,0,0,0-.035-.018h-.908v.57h-.29v-1.451h1.2a.32.32,0,0,1,.245.111.413.413,0,0,1,.093.267v.12a.493.493,0,0,1-.022.138h0a.521.521,0,0,1-.04.085c.013.031.031.062.04.089h0a.493.493,0,0,1,.022.138v.5h-.053Zm0,0Zm-1.193-1.139v.254h.908a.039.039,0,0,0,.035-.018.071.071,0,0,0,.018-.049v-.12a.1.1,0,0,0-.018-.054.049.049,0,0,0-.035-.013Zm0,0Zm2.368,1.028h.067v-1.14h.623v-.089h-1.313v.089h.623v1.14Zm0,0Zm.125.111h-.236v-1.14h-.623v-.311h1.536v.311h-.623v1.14Zm0,0Zm1.4-.111h1.046v-.089h-1.046a.147.147,0,0,1-.116-.058.189.189,0,0,1-.045-.12v-.3h1.206v-.093h-1.206v-.3a.192.192,0,0,1,.045-.125.145.145,0,0,1,.116-.054h1.046v-.089h-1.046a.221.221,0,0,0-.16.071.313.313,0,0,0-.067.2v.694a.306.306,0,0,0,.067.192.209.209,0,0,0,.16.076Zm0,0Zm1.1.111h-1.1a.313.313,0,0,1-.241-.116.381.381,0,0,1-.1-.262v-.694a.392.392,0,0,1,.1-.267.309.309,0,0,1,.241-.111h1.158v.311h-1.158a.04.04,0,0,0-.031.013.071.071,0,0,0-.018.054v.187h1.207v.316h-1.207v.192a.066.066,0,0,0,.018.049.044.044,0,0,0,.031.018h1.158v.312h-.054Zm0,0Zm1.216-.111h1.046v-.089h-1.046a.154.154,0,0,1-.116-.058.189.189,0,0,1-.045-.12v-.694a.192.192,0,0,1,.045-.125.145.145,0,0,1,.116-.054h1.046v-.089h-1.046a.221.221,0,0,0-.16.071.313.313,0,0,0-.067.2v.694a.307.307,0,0,0,.067.192.21.21,0,0,0,.16.076Zm0,0Zm1.1.111h-1.1a.32.32,0,0,1-.241-.116.381.381,0,0,1-.1-.262v-.694a.392.392,0,0,1,.1-.267.315.315,0,0,1,.241-.111h1.157v.311h-1.157a.04.04,0,0,0-.031.013.071.071,0,0,0-.018.054v.694a.066.066,0,0,0,.018.049.044.044,0,0,0,.031.018h1.157v.312h-.053Zm0,0Zm.783-.111h.966v-.089h-.966a.156.156,0,0,1-.12-.058.189.189,0,0,1-.045-.12v-.962h-.066v.962a.283.283,0,0,0,.071.192.2.2,0,0,0,.16.076Zm0,0Zm1.024.111h-1.024a.322.322,0,0,1-.245-.116.4.4,0,0,1-.1-.262V358.63h.29V359.7a.1.1,0,0,0,.018.049.053.053,0,0,0,.035.018h1.078v.312Zm0,0Zm.837-.111h.855a.2.2,0,0,0,.16-.076.3.3,0,0,0,.066-.192v-.962h-.062v.962a.189.189,0,0,1-.045.12.158.158,0,0,1-.12.058h-.855a.155.155,0,0,1-.12-.058.189.189,0,0,1-.045-.12v-.962h-.067v.962a.283.283,0,0,0,.071.192.206.206,0,0,0,.161.076Zm0,0Zm.855.111h-.855a.322.322,0,0,1-.245-.116.4.4,0,0,1-.1-.262V358.63h.29V359.7a.1.1,0,0,0,.018.049.053.053,0,0,0,.035.018h.855a.055.055,0,0,0,.035-.018.091.091,0,0,0,.018-.049V358.63h.286V359.7a.4.4,0,0,1-.093.262.323.323,0,0,1-.246.116Zm0,0Zm.837-.111h1.086a.2.2,0,0,0,.16-.076.3.3,0,0,0,.066-.192v-.125a.278.278,0,0,0-.018-.1h0a.325.325,0,0,0-.045-.085l-.031-.04.031-.035.013-.018h0a.144.144,0,0,0,.049-.111v-.178a.317.317,0,0,0-.066-.2.215.215,0,0,0-.16-.071h-1.086v1.23Zm0,0Zm1.086.111h-1.2V358.63h1.2a.3.3,0,0,1,.241.111.394.394,0,0,1,.1.267v.178a.24.24,0,0,1-.062.173.368.368,0,0,1,.04.08h0a.492.492,0,0,1,.022.138v.125a.381.381,0,0,1-.1.262.3.3,0,0,1-.241.117Zm0,0Zm0-.2h-1.02V358.83h1.02a.152.152,0,0,1,.12.054.192.192,0,0,1,.045.125v.178c0,.12-.071.12-.16.12H156.9v.093h.833a.156.156,0,0,1,.12.058.189.189,0,0,1,.045.12v.125a.189.189,0,0,1-.045.12.158.158,0,0,1-.121.058Zm0,0Zm-.908-.111h.908a.055.055,0,0,0,.035-.018.091.091,0,0,0,.018-.049v-.125a.1.1,0,0,0-.018-.049.053.053,0,0,0-.035-.018h-.908v.258Zm0,0Zm0-.828v.254h.912c.027,0,.049,0,.049-.009v-.178a.1.1,0,0,0-.018-.054.049.049,0,0,0-.035-.013h-.908Zm0,0Zm1.972,1.028h1.046v-.089H158.8a.154.154,0,0,1-.116-.058.189.189,0,0,1-.045-.12v-.3h1.207v-.093h-1.207v-.3a.192.192,0,0,1,.045-.125.152.152,0,0,1,.116-.054h1.046v-.089H158.8a.205.205,0,0,0-.156.071.293.293,0,0,0-.071.2v.694a.283.283,0,0,0,.071.192.194.194,0,0,0,.156.076Zm0,0Zm1.1.111h-1.1a.32.32,0,0,1-.241-.116.381.381,0,0,1-.1-.262v-.694a.392.392,0,0,1,.1-.267.315.315,0,0,1,.241-.111h1.158v.311H158.8a.04.04,0,0,0-.031.013.071.071,0,0,0-.018.054v.187h1.207v.316h-1.207v.192a.066.066,0,0,0,.018.049.044.044,0,0,0,.031.018h1.158v.312H159.9Z" transform="translate(-67.352 -330.663)" fill="#ffdb01" fill-rule="evenodd"/>
    </g>
  </g>
</svg>
