<svg xmlns="http://www.w3.org/2000/svg" width="50" height="50" viewBox="0 0 50 50">
  <g id="CEP" transform="translate(-1035.722 -3820.722)">
    <rect id="Retângulo_5369" data-name="Retângulo 5369" width="50" height="50" transform="translate(1035.722 3820.722)" fill="#098838" opacity="0"/>
    <g id="Tabelas_e_Jogos_do_Brasileirão_Série_A_2024___ge___brasileirão_série_a___ge-18" data-name="Tabelas e Jogos do Brasileirão Série A 2024 _ ge _ brasileirão série a _ ge-18" transform="translate(1039.14 3824.14)">
      <path id="Caminho_2365" data-name="Caminho 2365" d="M41.164,21.582A19.582,19.582,0,1,1,21.582,2,19.579,19.579,0,0,1,41.164,21.582Z" fill="#fff"/>
      <path id="Caminho_2366" data-name="Caminho 2366" d="M40.61,14.486A19.085,19.085,0,0,0,27.108,8.9h0A19.111,19.111,0,0,0,8,27.933v0A19.114,19.114,0,0,0,27.108,46.975h0A19.114,19.114,0,0,0,46.217,27.937h0A18.939,18.939,0,0,0,40.61,14.486Zm5.046,13.451h0A18.545,18.545,0,0,1,27.108,46.414h0A18.547,18.547,0,0,1,8.56,27.935v0A18.548,18.548,0,0,1,27.108,9.461h0A18.548,18.548,0,0,1,45.656,27.937Z" transform="translate(-5.526 -6.355)" fill="#1e3d8e" fill-rule="evenodd"/>
      <path id="Caminho_2367" data-name="Caminho 2367" d="M94.8,80.69a13.369,13.369,0,1,0,13.3,13.369A13.363,13.363,0,0,0,94.8,80.69Z" transform="translate(-73.223 -72.477)" fill="#1e3d8e" fill-rule="evenodd"/>
      <path id="Caminho_2368" data-name="Caminho 2368" d="M228.515,334.61l.522,1.6h1.685l-1.364.991.52,1.6-1.364-.991-1.363.991.521-1.6h0l-1.363-.991h1.685Z" transform="translate(-206.599 -306.347)" fill="#fff" fill-rule="evenodd"/>
      <path id="Caminho_2369" data-name="Caminho 2369" d="M319.436,193.4l.52,1.6h1.687l-1.364.991.521,1.6-1.364-.991-1.364.991.521-1.6h0L317.23,195h1.686Z" transform="translate(-290.34 -176.287)" fill="#fff" fill-rule="evenodd"/>
      <path id="Caminho_2370" data-name="Caminho 2370" d="M258.492,233.87l.387,1.192h1.255l-1.015.737.388,1.193-1.015-.737-1.015.737.388-1.193h0l-1.015-.737H258.1Z" transform="translate(-234.727 -213.562)" fill="#fff" fill-rule="evenodd"/>
      <path id="Caminho_2371" data-name="Caminho 2371" d="M224.336,109.18l.521,1.6h1.685l-1.363.991.52,1.6-1.364-.99-1.363.99.52-1.6h0l-1.364-.991h1.685Z" transform="translate(-202.749 -98.717)" fill="#fff" fill-rule="evenodd"/>
      <path id="Caminho_2372" data-name="Caminho 2372" d="M131.756,191.7l.521,1.6h1.685l-1.364.991.521,1.6-1.364-.99-1.364.99.521-1.6h0l-1.364-.991h1.686Z" transform="translate(-117.479 -174.721)" fill="#fff" fill-rule="evenodd"/>
      <path id="Caminho_2373" data-name="Caminho 2373" d="M61.193,113.992a.591.591,0,0,0-.781.191c-.3.441.038.869.449,1.146s.935.422,1.231-.019c.212-.316.073-.591-.177-.839l.622-.925a1.583,1.583,0,0,1,.335,2.251,1.931,1.931,0,0,1-3.2-2.149,1.509,1.509,0,0,1,2.142-.57Z" transform="translate(-52.787 -102.094)" fill="#1e3d8e"/>
      <path id="Caminho_2374" data-name="Caminho 2374" d="M94.1,67.741l1.685-1.355a1.077,1.077,0,0,1,1.6.066.951.951,0,0,1,.148,1.066,1,1,0,0,1,1,.376,2.4,2.4,0,0,0,.591.537l-.884.711a2.712,2.712,0,0,1-.429-.384c-.244-.254-.5-.52-.846-.237l-.474.379.806,1-.885.711Zm1.9.543.463-.372c.165-.133.367-.342.158-.6-.146-.182-.33-.2-.668.067l-.414.332Z" transform="translate(-84.828 -59.006)" fill="#1e3d8e"/>
      <path id="Caminho_2375" data-name="Caminho 2375" d="M153.251,34.643c.371.948.036,1.608-1.013,2.017s-1.746.158-2.117-.8l-.821-2.1,1.057-.412.73,1.87c.137.351.308.79.822.588s.329-.632.193-.984l-.73-1.87,1.057-.413Z" transform="translate(-135.669 -28.129)" fill="#1e3d8e"/>
      <path id="Caminho_2376" data-name="Caminho 2376" d="M214.239,27.223l1.574-1.974-1.614.119-.069-.942,3.1-.227.06.824-1.582,2.036,1.8-.132.068.941-3.283.237Z" transform="translate(-195.38 -20.447)" fill="#1e3d8e"/>
      <path id="Caminho_2377" data-name="Caminho 2377" d="M269.393,26l2.98.649-.2.922-1.874-.405-.1.449,1.7.369-.18.858-1.7-.37-.1.448,1.927.418-.2.924-3.036-.66Z" transform="translate(-245.559 -22.105)" fill="#1e3d8e"/>
      <path id="Caminho_2378" data-name="Caminho 2378" d="M319.7,43l1.026.482-1.561,3.336-1.026-.481Z" transform="translate(-291.178 -37.763)" fill="#1e3d8e"/>
      <path id="Caminho_2379" data-name="Caminho 2379" d="M345.173,60.13l1.7,1.332a1.075,1.075,0,0,1,.3,1.571.948.948,0,0,1-1.005.385,1,1,0,0,1-.141,1.056,2.425,2.425,0,0,0-.39.7l-.893-.7a2.643,2.643,0,0,1,.277-.5c.193-.3.395-.6.041-.88l-.474-.373-.794,1.011-.892-.7Zm-.1,1.964.467.366c.167.131.415.281.619.021.145-.182.126-.368-.216-.632l-.418-.328Z" transform="translate(-313.983 -53.54)" fill="#1e3d8e"/>
      <path id="Caminho_2380" data-name="Caminho 2380" d="M394.886,113.213a1.931,1.931,0,1,1-2.646-.461A1.81,1.81,0,0,1,394.886,113.213Zm-2.434,1.653c.163.237.57.5,1.248.037s.587-.935.425-1.174-.569-.5-1.248-.038-.587.935-.426,1.174Z" transform="translate(-358.603 -101.659)" fill="#1e3d8e"/>
      <path id="Caminho_2381" data-name="Caminho 2381" d="M426.43,216.266l-.23-3.042.942-.071.148,1.909.458-.035-.13-1.737.875-.066.131,1.737.457-.035-.148-1.965.942-.071.237,3.1Z" transform="translate(-390.705 -194.238)" fill="#1e3d8e"/>
      <path id="Caminho_2382" data-name="Caminho 2382" d="M419.88,273.279l.424-1.974c.2-.947.782-1.035,1.15-.956a.755.755,0,0,1,.611.6.9.9,0,0,1,1.033-.432,1.175,1.175,0,0,1,.824,1.5l-.44,2.043Zm1.642-.809.126-.585c.049-.232.015-.395-.216-.442-.182-.039-.28.1-.329.325l-.126.586Zm1.342.289.14-.651c.05-.232.027-.448-.25-.508-.212-.045-.355.056-.411.316l-.149.7Z" transform="translate(-384.884 -247.139)" fill="#1e3d8e"/>
      <path id="Caminho_2383" data-name="Caminho 2383" d="M398.612,319.985c.892.5,1.049,1.221.5,2.2s-1.251,1.228-2.137.728L395,321.811l.553-.99,1.751.981c.328.185.739.414,1.008-.068s-.147-.7-.474-.882l-1.751-.981.553-.991Z" transform="translate(-361.969 -291.859)" fill="#1e3d8e"/>
      <path id="Caminho_2384" data-name="Caminho 2384" d="M363.45,379.532l.8-.8,1.934,1.942,1.155-1.152.666.67-1.959,1.952Z" transform="translate(-332.91 -346.983)" fill="#1e3d8e"/>
      <path id="Caminho_2385" data-name="Caminho 2385" d="M325.948,403.191a.591.591,0,0,0-.782-.186c-.465.257-.363.79-.123,1.224s.639.8,1.105.545c.334-.186.335-.492.226-.827l.974-.541a1.582,1.582,0,0,1-.728,2.156,1.93,1.93,0,0,1-1.871-3.375,1.508,1.508,0,0,1,2.166.468Z" transform="translate(-296.356 -368.344)" fill="#1e3d8e"/>
      <path id="Caminho_2386" data-name="Caminho 2386" d="M241.7,427.657l3.044-.187.058.943-1.912.118.029.458,1.737-.107.054.876-1.737.107.028.459,1.968-.121.058.942-3.1.191Z" transform="translate(-220.773 -391.875)" fill="#1e3d8e"/>
      <path id="Caminho_2387" data-name="Caminho 2387" d="M190.718,421.654l-1.008-.222.2-.922,3.126.685-.2.923-1.008-.221-.587,2.678-1.113-.242Z" transform="translate(-172.888 -385.465)" fill="#1e3d8e"/>
      <path id="Caminho_2388" data-name="Caminho 2388" d="M126.369,397.37l1.9,1.04a1.078,1.078,0,0,1,.553,1.5.947.947,0,0,1-.929.544,1,1,0,0,1,.033,1.066,2.421,2.421,0,0,0-.271.752l-1-.546a2.714,2.714,0,0,1,.191-.542c.142-.322.291-.659-.1-.874l-.529-.291-.618,1.127-1-.546Zm.22,1.957.52.285c.186.1.456.209.616-.079.111-.2.062-.383-.316-.591l-.466-.256Z" transform="translate(-112.92 -364.152)" fill="#1e3d8e"/>
      <path id="Caminho_2389" data-name="Caminho 2389" d="M83.812,366.393a1.931,1.931,0,1,1-2.685-.011A1.815,1.815,0,0,1,83.812,366.393ZM81.69,368.43c.2.208.645.395,1.237-.173s.422-1.02.223-1.229-.646-.395-1.237.172S81.49,368.221,81.69,368.43Z" transform="translate(-72.286 -335.067)" fill="#1e3d8e"/>
      <path id="Caminho_2390" data-name="Caminho 2390" d="M44.007,313.57l.857,1.692a1.249,1.249,0,0,1-.512,1.774,1.262,1.262,0,0,1-1.822-.7l-.3-.6-.994.5-.512-1.012Zm-1,1.777.2.389c.133.262.291.529.623.362.3-.152.2-.391.079-.64l-.228-.452Z" transform="translate(-35.663 -286.968)" fill="#1e3d8e"/>
      <path id="Caminho_2391" data-name="Caminho 2391" d="M28.9,269.284a.688.688,0,0,0-.231.092.521.521,0,0,0-.158.583c.036.182.15.449.418.395.188-.036.208-.2.264-.861.05-.6.079-1.289.809-1.431.836-.163,1.334.481,1.48,1.225.153.785-.011,1.537-.886,1.737l-.206-1.053a.282.282,0,0,0,.264-.188.6.6,0,0,0,.027-.347c-.03-.152-.119-.395-.322-.354-.254.071-.209.6-.251,1.138s-.181,1.093-.844,1.222c-.943.184-1.416-.623-1.573-1.428-.079-.411-.162-1.608.991-1.845Z" transform="translate(-23.63 -245.03)" fill="#1e3d8e"/>
      <path id="Caminho_2392" data-name="Caminho 2392" d="M28.289,212.682l-.246,3.041-.941-.079.158-1.908L26.8,213.7l-.14,1.737-.875-.07.141-1.737-.458-.037-.158,1.965-.941-.079.25-3.1Z" transform="translate(-20.604 -193.768)" fill="#1e3d8e"/>
    </g>
  </g>
</svg>
