<svg xmlns="http://www.w3.org/2000/svg" width="28.842" height="28.842" viewBox="0 0 28.842 28.842">
  <path id="esportes" d="M179.771,9.314a5.83,5.83,0,0,0-4.822-4.824,19.54,19.54,0,0,0-7.65.362,1.76,1.76,0,0,0-.274.075,20.927,20.927,0,0,0-9.706,5.51,21.226,21.226,0,0,0-5.519,9.724.55.55,0,0,1-.087.324,20.022,20.022,0,0,0-.349,7.642,5.825,5.825,0,0,0,4.822,4.75,19.248,19.248,0,0,0,3.015.237,20.558,20.558,0,0,0,4.71-.586l.237-.012a21.016,21.016,0,0,0,15.188-15.171.768.768,0,0,1,.075-.324,19.767,19.767,0,0,0,.361-7.7M170.6,6.933a10.114,10.114,0,0,1,1.333-.075,15.776,15.776,0,0,1,2.592.212,3.271,3.271,0,0,1,.374.1l.237.087-2.28,2.306-2.579-2.605ZM154.466,20.222A18.4,18.4,0,0,1,167.075,7.569l.1-.025,3.85,3.852-3.364,3.353-1.171-1.172a1.3,1.3,0,1,0-1.844,1.833l1.171,1.172-2.355,2.331-1.171-1.184a1.3,1.3,0,0,0-1.832,1.857l1.171,1.172-3.352,3.391-3.837-3.84Zm-.411,7.8.149-.05-.149.037a2.515,2.515,0,0,1-.1-.362,15.834,15.834,0,0,1-.2-3.927l.012-.337,2.679,2.593-2.317,2.281Zm6.479,2.481q-.542.037-1.084.037a17.018,17.018,0,0,1-2.841-.237,3.12,3.12,0,0,1-.324-.087l-.311-.087,2.3-2.319,2.592,2.68Zm16.135-13.364A18.706,18.706,0,0,1,172,25.121a18.722,18.722,0,0,1-7.961,4.675l-.087.025-3.837-3.84,3.352-3.366,1.184,1.184a1.308,1.308,0,0,0,1.832,0,1.272,1.272,0,0,0,.386-.922,1.224,1.224,0,0,0-.374-.91l-1.146-1.184,2.317-2.319,1.184,1.172a1.3,1.3,0,0,0,1.844,0,1.314,1.314,0,0,0-.012-1.845l-1.184-1.172,3.364-3.391,3.837,3.827Zm.71-3.49-.012.337L174.687,11.4,177,9.089l.1.349a1.035,1.035,0,0,1,.075.262,16.1,16.1,0,0,1,.2,3.952" transform="translate(-151.148 -4.27)" fill="#e51d35"/>
</svg>
