<svg xmlns="http://www.w3.org/2000/svg" width="28.522" height="31.877" viewBox="0 0 28.522 31.877">
  <path id="famosos" d="M364,34.178a1.811,1.811,0,0,1-.669-.129,1.847,1.847,0,0,1-1.028-1.027l-.66-1.8-1.846-.63a1.783,1.783,0,0,1-1.138-2.239,1.789,1.789,0,0,1,1.155-1.158l1.828-.623.649-1.771.01-.024a1.83,1.83,0,0,1,3.406,0l.658,1.793,1.846.628a1.787,1.787,0,0,1-.018,3.4l-1.828.624L365.712,33A1.853,1.853,0,0,1,364,34.178M361.143,28.9l1.252.427a1.8,1.8,0,0,1,1.114,1.077L364,31.746l.49-1.336a1.809,1.809,0,0,1,1.123-1.087l1.246-.424-1.252-.427a1.8,1.8,0,0,1-1.114-1.077L364,26.052l-.489,1.336a1.809,1.809,0,0,1-1.123,1.087Zm.6,2.36h0Zm4.522,0h0m1.3-2.119.008,0Zm-7.1,0h0m7.1-.471-.007,0Zm-7.122-.005h0m1.31-2.116h0Zm4.515,0h0m1.055-7.27a2.258,2.258,0,0,1-2.095-1.43l-1.323-3.606a.176.176,0,0,0-.109-.1l-3.714-1.27A2.182,2.182,0,0,1,360.1,8.7l3.685-1.262a.184.184,0,0,0,.118-.11l1.306-3.573.009-.024a2.25,2.25,0,0,1,4.189,0l1.324,3.606a.18.18,0,0,0,.109.1l3.713,1.272A2.138,2.138,0,0,1,375.8,9.765a2.18,2.18,0,0,1-1.285,3.1l-3.677,1.261a.182.182,0,0,0-.115.107l-1.313,3.579a2.255,2.255,0,0,1-2.1,1.453m-.2-14.795-1.3,3.565a2.215,2.215,0,0,1-1.375,1.333l-3.707,1.269-.122.1a.142.142,0,0,0,.092.177l3.738,1.28A2.206,2.206,0,0,1,365.8,13.52l1.317,3.591a.218.218,0,0,0,.113.1.243.243,0,0,0,.282-.122l1.3-3.561A2.208,2.208,0,0,1,370.19,12.2l3.7-1.268.122-.1a.158.158,0,0,0-.092-.175l-3.737-1.28a2.205,2.205,0,0,1-1.367-1.326L367.5,4.456a.213.213,0,0,0-.113-.1.216.216,0,0,0-.278.116M353.518,24.239a1.92,1.92,0,0,1-1.808-1.281l-.776-2.191-2.119-.709a1.925,1.925,0,0,1,0-3.626l2.19-.778.706-2.122a1.919,1.919,0,0,1,3.618,0l.778,2.2,2.119.707a1.926,1.926,0,0,1,0,3.626l-2.19.778-.706,2.123a1.925,1.925,0,0,1-1.811,1.28M349.8,18.244l1.881.668a1.915,1.915,0,0,1,1.169,1.174l.665,1.88.667-1.883a1.918,1.918,0,0,1,1.167-1.171l1.881-.668-1.881-.668a1.916,1.916,0,0,1-1.167-1.17l-.667-1.884-.667,1.883a1.915,1.915,0,0,1-1.167,1.171Z" transform="translate(-347.536 -2.3)" fill="#e51d35"/>
</svg>
