<svg xmlns="http://www.w3.org/2000/svg" width="50" height="50" viewBox="0 0 50 50">
  <g id="FLU" transform="translate(-1035.846 -3820.846)">
    <rect id="Retângulo_5369" data-name="Retângulo 5369" width="50" height="50" transform="translate(1035.846 3820.846)" fill="#098838" opacity="0"/>
    <g id="g10" transform="translate(1339.607 3725.406)">
      <g id="g12" transform="translate(-295.958 100.557)">
        <g id="g3081" transform="translate(0 0)">
          <path id="path14" d="M-271.365,43.18c-4.451,5.517-10.2,7.671-17.2,6.312-.161,18.057,8.167,26.588,17.2,33.455,8.939-6.78,17.419-15.453,17.185-33.441-7.272,1.351-12.7-.744-17.189-6.325" transform="translate(288.566 -43.18)" fill="#fff"/>
          <path id="path16" d="M-271.365,43.18c-4.451,5.517-10.2,7.671-17.2,6.312-.161,18.057,8.167,26.588,17.2,33.455,8.939-6.78,17.419-15.453,17.185-33.441-7.272,1.351-12.7-.744-17.189-6.325Z" transform="translate(288.566 -43.18)" fill="none" stroke="#8e0927" stroke-miterlimit="2.613" stroke-width="0.5"/>
          <path id="path18" d="M-229.134,213.465c-1.971,5.4-5.861,11.015-13.367,17.12-7.414-6.073-11.3-11.732-13.294-17.12h26.661" transform="translate(259.693 -193.212)" fill="#00613c"/>
          <path id="path20" d="M-272.287,73.007c9.123.1,11.746-1.746,15.26-5.65,3.794,3.79,6.312,5.765,15.264,5.65a35.043,35.043,0,0,1-1.6,10.864h-27.263a34.748,34.748,0,0,1-1.658-10.864" transform="translate(274.223 -64.482)" fill="#870a28"/>
          <path id="path22" d="M-180.018,106.567c.3.1.914-.11,1.245.533a3.532,3.532,0,0,1,.556,1.355l1.888-.294c-.207-.744-.06-.763-.243-1.341a8.813,8.813,0,0,0,3.358-.923,5.909,5.909,0,0,0,1.594,1.047c-2.343,1.309-2.1,2.37-1.929,3.064l.923,1.093a4.1,4.1,0,0,1,3.275-4.2,24.927,24.927,0,0,1-3.611-2.352c-2.09.735-4.667,1.566-5.751.753l-1.3,1.263" transform="translate(192.929 -97.251)" fill="#fff"/>
          <path id="path24" d="M-205.007,139.5c0,.073,1.58-.8,1.971-.611l-.147-.9a10.3,10.3,0,0,1,6.312-.753,2.629,2.629,0,0,1,.188-1.112c-.854-.152-1.7-.184-2.577-.253a11.317,11.317,0,0,0-2.159.358,11,11,0,0,1-1.971.547,3.574,3.574,0,0,1-1.447-.271,13.06,13.06,0,0,1-1.406,1.364c.556-.129,1.387.069,1.268,1.341l-.032.289" transform="translate(216.034 -124.848)" fill="#fff"/>
          <path id="path26" d="M-116.862,140.222c1.805.671,1.851.041,2.628-.023l.459.9c-2.384.707-3.5,3.546-1.75,5.163-1.7.331-2.715-1.792-1.355-4.378.078-.152-.009-.39.083-.542l-.505-.133a4.679,4.679,0,0,1,.441-.983" transform="translate(137.857 -128.66)" fill="#fff"/>
          <path id="path28" d="M-106.125,162.291a2.452,2.452,0,0,0-.4,1.181,2.649,2.649,0,0,1,1.819,2.076,1.072,1.072,0,0,0,.041.11c.469,1.208,2.793,1.24,3.2.831.1-.469-.037-.758-.459-.877-.487,0-.432.492-.877.372a1.3,1.3,0,0,1-.978-.891c-.2-.684.193-1.424,1.24-1.672l-.524-.721a6,6,0,0,1-3.064-.409" transform="translate(128.172 -148.124)" fill="#fff"/>
          <path id="path30" d="M-143.892,156.817l-.239-.064-.046.22-.11.046-.308-.372a13.806,13.806,0,0,0-3.11-.023l-.064,1.2a13.919,13.919,0,0,1,3.523.152,4.437,4.437,0,0,1,.354-1.162" transform="translate(164.515 -143.064)" fill="#fff"/>
          <path id="path32" d="M-166.147,147.834l-.083,6.041,1.759-.087.083-.965,1.3-.083.211.211q-1.385,3.81,1.594,4.612l.041-.253a2.79,2.79,0,0,1,.211-4.488l-.547-1.089c-1.02-.271-2,.469-2.811-.083l.294-4.153a6.164,6.164,0,0,0-2.053.335" transform="translate(180.78 -135.091)" fill="#fff"/>
          <path id="path34" d="M-185.793,220.729l-.211,1.594a14.39,14.39,0,0,0,8.053-.418,9.588,9.588,0,0,1,4.653-.841c-.3-.459,1.19-3.271,2.476-1.635l.712.041c-.322-.643-.308-.992.671-1.553-1.075-.124-1.86-.041-2.6-.629a15.352,15.352,0,0,1-13.753,3.441" transform="translate(198.203 -196.581)" fill="#fff"/>
          <path id="path36" d="M-131.449,201.155a1.745,1.745,0,0,0-.335,1.236,1.933,1.933,0,0,1,1.553.9l.023-2.223-1.24.087" transform="translate(150.446 -182.289)" fill="#fff"/>
          <path id="path38" d="M-167.273,212.929l-.193,4.125a9.516,9.516,0,0,0,1.741.106l.124-4.235-1.672,0" transform="translate(181.869 -192.736)" fill="#fff"/>
          <path id="path40" d="M-178.7,263.327c.735.092,1.369.055,1.929.083.152,2.508,1.1,3.519,3.2,4.185a6.126,6.126,0,0,1,1.245.469c-5.007.469-4.993-2.752-7.23-.294l-.611-.859a6.822,6.822,0,0,0,1.47-3.583" transform="translate(193.065 -237.143)" fill="#fff"/>
          <path id="path42" d="M-232.674,160.166c-3.032.294-5.8,2.012-8.167,5.8-.184.266-.556.68-.625.758a1.413,1.413,0,0,1,.68.427,9.911,9.911,0,0,0,3.964,4.24,6.937,6.937,0,0,0,.312-1.557c-.864-.386-2.733-2.076-2.554-3.928a7.287,7.287,0,0,1,6.39-4.364v-1.373" transform="translate(247.068 -146.253)" fill="#fff"/>
          <path id="path44" d="M-205.417,176.006a3.138,3.138,0,0,1,1.773-.854l.064,3.454a15.306,15.306,0,0,1,4.451-.28l-.119,1.121a15.561,15.561,0,0,0-4.58.528,33.31,33.31,0,0,1-1.089,6.546,2.963,2.963,0,0,1,1.9,1.373l-.5.937a2.444,2.444,0,0,0-2.683-1.245l-.625-.56c1.369-2.632,1.217-7.736,1.406-11.02" transform="translate(216.544 -159.456)" fill="#fff"/>
          <path id="path46" d="M-173.964,296.586c.142-.046.56.749,1.277.951.037.032.5-.018.266-.11a2.865,2.865,0,0,1-.937-1.387s-.744.593-.606.547" transform="translate(187.609 -265.965)" fill="#fff"/>
        </g>
      </g>
    </g>
  </g>
</svg>
