<svg xmlns="http://www.w3.org/2000/svg" width="41.114" height="34.262" viewBox="0 0 41.114 34.262">
  <path id="games" d="M35.546,12.327a12.135,12.135,0,0,0-8.612-3.533H21.025V2.771a1.385,1.385,0,1,0-2.77,0V8.794H12a12.135,12.135,0,0,0-8.666,3.8C1.045,15-1.04,19.026-1,22.392s2.221,7.339,4.582,9.675a12.141,12.141,0,0,0,8.584,3.561H27.276c6.715-.195,12.839-6.573,12.839-13.417v-.348c-.1-3.422-2.358-7.339-4.569-9.536M26.935,32.8H12.045C6.777,32.721,1.7,27.427,1.785,22.058,1.867,16.744,7,11.618,12.2,11.618H26.935c5.268,0,10.41,5.224,10.41,10.593S32.2,32.8,26.935,32.8M17.381,22.211a1.4,1.4,0,0,1-1.392,1.4H13.737v2.309a1.386,1.386,0,1,1-2.77,0V23.616H8.7a1.412,1.412,0,0,1,0-2.824h2.265V18.5a1.386,1.386,0,1,1,2.77,0v2.3h2.252a1.412,1.412,0,0,1,1.392,1.419m12.146-3.1a1.993,1.993,0,1,1-1.993-2.031,2.006,2.006,0,0,1,1.993,2.031m2.429,6.19a1.993,1.993,0,1,1-1.993-2.031A2.018,2.018,0,0,1,31.957,25.3" transform="translate(0.999 -1.366)" fill="#e51d35"/>
</svg>
