<svg xmlns="http://www.w3.org/2000/svg" width="50" height="50" viewBox="0 0 50 50">
  <g id="JUV" transform="translate(-1035.722 -3820.722)">
    <rect id="Retângulo_5369" data-name="Retângulo 5369" width="50" height="50" transform="translate(1035.722 3820.722)" fill="#098838" opacity="0"/>
    <g id="Tabelas_e_Jogos_do_Brasileirão_Série_A_2024___ge___brasileirão_série_a___ge-12" data-name="Tabelas e Jogos do Brasileirão Série A 2024 _ ge _ brasileirão série a _ ge-12" transform="translate(1038.509 3819.468)">
      <path id="Caminho_2309" data-name="Caminho 2309" d="M22.96,6.98A19.288,19.288,0,1,1,2.9,25.49,19.364,19.364,0,0,1,22.96,6.98" transform="translate(0 0)" fill="#fff" fill-rule="evenodd"/>
      <path id="Caminho_2310" data-name="Caminho 2310" d="M28.4,38.2c.18.025.368.068.548.094,0,.181.014.66.248.71.271.059.248-.336.248-.539V37.386c0-.334,0-.7,0-1.052.206-.111.4-.206.6-.3,0,.41,0,.847,0,1.274s0,.829,0,1.274c0,.568-.014,1.613-.849,1.043a1.779,1.779,0,0,1-.8-1.36V38.2ZM30.479,35.8a3.7,3.7,0,0,1,.591-.282c0,.548,0,1.095,0,1.633v1.651c0,.3.018,1.036.394,1.146.423.124.394-.794.394-1.01,0-.616,0-1.266,0-1.924,0-.6,0-1.257,0-1.9.206-.1.411-.171.609-.282,0,.676,0,1.343,0,2.019,0,.658,0,1.309,0,1.976,0,.632.087,2.827-1,2.326a1.5,1.5,0,0,1-.42-.394,3.7,3.7,0,0,1-.565-2.233V37.162Q30.479,36.484,30.479,35.8Zm2.99,6.185-.821-7.211.643-.256.462,5.32.034-.53.438-5.106.634-.2-.825,8.2Zm1.585.53c0-.718,0-1.437,0-2.147s0-1.429,0-2.147c0-.7,0-1.437,0-2.138s0-1.429,0-2.155c.609-.154,1.217-.316,1.808-.461q0,.987,0,1.925c-.4.077-.806.137-1.2.188,0,.539,0,1.043,0,1.557.36-.017.729-.051,1.08-.094,0,.633,0,1.274,0,1.873a9.016,9.016,0,0,1-1.079.025c0,.633,0,1.266,0,1.916a9.892,9.892,0,0,0,1.235.111c0,.676,0,1.309,0,1.933A12.248,12.248,0,0,1,35.055,42.519Zm2.194.446,0-7.167V33.4l.66-.127.839,6.261-.024-6.4L39.317,33l0,7.519v2.506h-.677l-.222-1.651-.231-1.643L37.79,36.9c.021,2.032.034,4.058.033,6.09Zm3.017-.025q0-3.982,0-7.964l-.686.043v-2.01l1.98-.137v2.019l-.694.034q0,3.968,0,7.937Zm1.545-10.024c.2,0,.4.026.591.043,0,.5,0,1.009,0,1.488,0,.5,0,.992,0,1.522,0,.462,0,.958,0,1.454s0,.984,0,1.488c0,.246-.04,1.668.394,1.668.392,0,.395-1.611.395-1.831,0-.479,0-.941,0-1.419s0-.95,0-1.429,0-.932,0-1.394q0-.745,0-1.437c.2.026.411.086.6.095,0,.881,0,1.745,0,2.609,0,.829,0,1.693,0,2.566,0,.944-.018,3.889-1,4.191a.589.589,0,0,1-.42-.051c-.594-.538-.565-2.968-.565-3.789,0-.488,0-.958,0-1.455,0-.479,0-.958,0-1.429V34.369C41.811,33.882,41.811,33.394,41.811,32.915Zm3.05,6.673c.12-.043.275-.1.343-.128.5-.154.541-1.8.541-2.2,0-.309-.023-1.933-.543-2.073l-.34-.066c0,.77,0,1.505,0,2.241S44.861,38.852,44.86,39.588Zm-.6,1.967q0-1.026,0-2.053c0-.693,0-1.377,0-2.036,0-.684,0-1.386,0-2.07,0-.7,0-1.394,0-2.07.326.094.712.239,1,.342.9.293,1.105,2.664,1.1,3.473,0,1.045-.22,3.236-1.184,3.831C44.92,41.136,44.569,41.393,44.26,41.555Zm2.46-1.736V38.433c0-.453,0-.915,0-1.36V35.7c0-.444,0-.906,0-1.369a16.253,16.253,0,0,1,1.817,1.1c0,.188,0,.368,0,.539-.4-.111-.806-.24-1.209-.351v.8c.36.018.72.018,1.088.043v.565c-.369.094-.729.2-1.088.316,0,.317,0,.658,0,.984.42-.222.831-.513,1.311-.786v.565C47.964,38.673,47.347,39.247,46.72,39.819ZM25.951,35.438c4.52-7.165,9.587-11.227,16.7-12.05a16.662,16.662,0,0,1,6.313,11.239C47.536,33.2,38.7,28.376,27.035,37.134A3.107,3.107,0,0,0,25.951,35.438Zm-3.741-.085a31.07,31.07,0,0,1-1.6-10.546,16.737,16.737,0,0,1,5.4-3.647,16.513,16.513,0,0,1,3.152-.967c-4.029,5.149-4.136,10.549-4.3,14.685a3.095,3.095,0,0,0-2.646.475Zm-1.144,1.6c-2.415-1.555-3.277-3.032-4.6-5.124a16.453,16.453,0,0,0,.545,10.763A14.858,14.858,0,0,1,21,38.485a3.088,3.088,0,0,1,.067-1.532Zm2.612,3.966c-.545,4.541,2.37,8.631,7.107,12.033A16.55,16.55,0,0,1,20.4,47.842,10.278,10.278,0,0,1,21.557,39.7,3.1,3.1,0,0,0,23.679,40.919Zm3.354-2.333c7.49,6.231,15.157,6.995,21.834.466a16.479,16.479,0,0,1-4.283,8.724,16.786,16.786,0,0,1-3.27,2.7c-5.951.174-11.947-1.966-16.507-9.635A3.1,3.1,0,0,0,27.033,38.586ZM38.767,23.431l-.828.306-.259-.705.837-.305ZM33.188,26.08l-.706.542-.451-.6.7-.532Zm2.421-3.235-.007-.018a.255.255,0,0,0-.2-.156.913.913,0,0,0-.4.092l-.684.314a1.207,1.207,0,0,0-.524.346.558.558,0,0,0,.053.452l.157.341a.429.429,0,0,0,.3.277,1.216,1.216,0,0,0,.591-.151l.5-.228a1.649,1.649,0,0,0,.512-.321.3.3,0,0,0,.013-.317l-.015-.027.872-.4.007.018c.037.064.066.126.08.154a1.071,1.071,0,0,1,.1.413.65.65,0,0,1-.1.326,1.015,1.015,0,0,1-.32.288,4.981,4.981,0,0,1-.662.351l-.954.443a6.09,6.09,0,0,1-.669.255.959.959,0,0,1-.425.037.823.823,0,0,1-.354-.171,1.216,1.216,0,0,1-.282-.387l-.3-.655a.915.915,0,0,1-.042-.837,2.024,2.024,0,0,1,.951-.684l.954-.443a6.987,6.987,0,0,1,.706-.277,1.266,1.266,0,0,1,.408-.039.64.64,0,0,1,.288.139,1.083,1.083,0,0,1,.243.349.752.752,0,0,1,.036.072.133.133,0,0,0,.021.053Zm-5.324,2.713L28.6,27.312l.285.273,1.591-1.647.4.373-1.589,1.656.277.276,1.719-1.791.46.446L29.38,29.367l-1.894-1.81,2.34-2.444ZM24.114,35.592a2.261,2.261,0,1,1-2.352,2.17A2.27,2.27,0,0,1,24.114,35.592Zm2.257,12.264-.347-.544,1.416-.885-.834-.376.235-.513,1.01.5.412.641Zm3.109.81-.436-.472a.358.358,0,0,0-.176-.127.212.212,0,0,0-.183.061.2.2,0,0,0-.075.16.325.325,0,0,0,.121.193l.418.479c.075.072.132.125.183.127a.181.181,0,0,0,.174-.053.207.207,0,0,0,.075-.159A.366.366,0,0,0,29.481,48.666Zm.481.841h-.008a.662.662,0,0,0,.261-.52,1,1,0,0,0-.3-.586l-.657-.737a.8.8,0,0,0-.444-.283.448.448,0,0,0-.391.121l-.338.295a.452.452,0,0,0-.153.4,1.623,1.623,0,0,0,.364.571l.329.356a1.2,1.2,0,0,0,.248.224.454.454,0,0,0,.229.06l-.186.164a.229.229,0,0,1-.209.077c-.069,0-.135-.066-.217-.155l-.427-.463a.481.481,0,0,1-.112-.21A.142.142,0,0,1,28,48.657l-.411-.453-.062.057c-.008,0-.018.016-.027.025a.492.492,0,0,0-.189.429,1.141,1.141,0,0,0,.321.544l.4.461a1.879,1.879,0,0,0,.707.551.591.591,0,0,0,.565-.191Zm.932,2.265-.552-.347.888-1.411-.919.031-.021-.557,1.141,0,.636.411Zm1.185-.3v.008c-.02.051-.056.1-.065.126a1.068,1.068,0,0,0-.083.364.476.476,0,0,0,.059.242.931.931,0,0,0,.208.171,2.578,2.578,0,0,0,.4.2l.878.353a1.051,1.051,0,0,0,.562.109.409.409,0,0,0,.312-.288l.113-.26a.325.325,0,0,0,0-.257A.526.526,0,0,0,34.219,52a.513.513,0,0,0,.31-.013.39.39,0,0,0,.172-.224l.095-.228a.468.468,0,0,0-.027-.421,1.312,1.312,0,0,0-.511-.32l-.853-.343a1.06,1.06,0,0,0-.656-.1.624.624,0,0,0-.35.388.3.3,0,0,1-.02.051c-.009.017-.018.042-.037.075l.591.238.01-.025a.25.25,0,0,1,.126-.149c.035-.025.1-.013.2.016l.65.275a.364.364,0,0,1,.193.119.209.209,0,0,1-.1.27.225.225,0,0,1-.128-.014l-.651-.257-.19.463.624.248a.387.387,0,0,1,.175.135.257.257,0,0,1-.007.163.187.187,0,0,1-.115.1.685.685,0,0,1-.154-.023l-.734-.3a.5.5,0,0,1-.225-.154.25.25,0,0,1,.008-.2c.018-.008.019-.034.027-.042-.008-.009.018-.016.018-.016ZM33.15,17.9A18.577,18.577,0,1,1,13.828,35.726,18.643,18.643,0,0,1,33.15,17.9Zm-.026.9A17.671,17.671,0,1,0,50.133,37.154,17.706,17.706,0,0,0,33.124,18.8Z" transform="translate(-10.218 -10.208)" fill="#008639" fill-rule="evenodd"/>
    </g>
  </g>
</svg>
