<svg xmlns="http://www.w3.org/2000/svg" width="31.754" height="31.754" viewBox="0 0 31.754 31.754">
  <path id="mundo" d="M60.138,1.856A15.877,15.877,0,1,0,76.015,17.733,15.878,15.878,0,0,0,60.138,1.856m0,2.651a13.183,13.183,0,0,1,1.893.131l1.123,2.246-4.3,4.309-4.635.666-2.272,2.272L49.823,9.442A13.235,13.235,0,0,1,60.138,4.507M57.827,30.764a13.391,13.391,0,0,1-3.264-1.031,13.246,13.246,0,0,1-6.424-17.588l2.141,4.7.927,3.708,4.753-.783,1.306.653-2.742,3.565,4.021,5.6Zm2.99.183.914-1.475-3.9-5.432,2.468-3.2,2.977-.418,7.9,4.609a13.253,13.253,0,0,1-10.354,5.915m2.99-13.266-4.779.666-2.664-1.332-3.186.535-.17-.731,2.455-2.468,4.635-.666,6.267-6.267-.888-1.789A13.258,13.258,0,0,1,72.4,22.695Z" transform="translate(-44.261 -1.856)" fill="#e51d35"/>
</svg>
