<svg xmlns="http://www.w3.org/2000/svg" width="23.284" height="31.6" viewBox="0 0 23.284 31.6">
  <path id="música" d="M145.266,4.479a2.011,2.011,0,0,0-.116-.238,2.079,2.079,0,0,0-1.254-.925l-.271-.04a3.563,3.563,0,0,0-1.6.331l-6.811,2.327a2.942,2.942,0,0,0-1,.436,1.116,1.116,0,0,0-.129.093,2.218,2.218,0,0,0-.594.859c-.013.04-.039.093-.052.132a2.846,2.846,0,0,0-.09,1v5.3a3.8,3.8,0,0,0,0,.767V25.237a8.242,8.242,0,0,0-4.278-1.15c-3.851,0-6.862,2.367-6.862,5.394s3.011,5.394,6.862,5.394,6.862-2.367,6.862-5.394v-12.9a3.768,3.768,0,0,0,.853-.264l6.824-2.327a3.218,3.218,0,0,0,1-.45.712.712,0,0,0,.116-.093,2.075,2.075,0,0,0,.607-.846c.013-.053.026-.093.039-.145a2.845,2.845,0,0,0,.1-.992V6.145a3.664,3.664,0,0,0-.207-1.666M129.073,32.231c-2.313,0-4.278-1.256-4.278-2.75s1.964-2.75,4.278-2.75,4.278,1.269,4.278,2.75-1.964,2.75-4.278,2.75m13.815-20.784-6.953,2.367-.013-5.341,6.966-2.38Z" transform="translate(-122.211 -3.275)" fill="#e51d35"/>
</svg>
