<svg xmlns="http://www.w3.org/2000/svg" width="23.912" height="34.159" viewBox="0 0 23.912 34.159">
  <path id="política" d="M112.58,25.469a14.763,14.763,0,0,1-10.034,5.646c-.1.012-.208.008-.313.018V33.36a1.32,1.32,0,1,1-2.638,0V31.152a14.653,14.653,0,0,1-8.039-3.319,15.14,15.14,0,0,1-2.306-2.364,1.375,1.375,0,0,1,.2-1.9,1.3,1.3,0,0,1,1.855.21,12.537,12.537,0,0,0,1.9,1.947,12.114,12.114,0,0,0,17.316-1.949,1.3,1.3,0,0,1,1.853-.207,1.373,1.373,0,0,1,.2,1.9m-19.8-9.583V8.9a8.139,8.139,0,1,1,16.274,0v6.989a8.139,8.139,0,1,1-16.274,0m2.638,0a5.5,5.5,0,1,0,11,0V8.9a5.5,5.5,0,1,0-11,0Z" transform="translate(-88.959 -0.553)" fill="#e51d35"/>
</svg>
