<svg xmlns="http://www.w3.org/2000/svg" width="35.233" height="31.877" viewBox="0 0 35.233 31.877">
  <path id="polícia" d="M410.1,26.195h-2.109V19.508a11.042,11.042,0,1,0-22.081-.185c0,.062,0,.124,0,.185v6.687H383.8a1.185,1.185,0,0,0-1.177,1.192v4.989a1.184,1.184,0,0,0,1.177,1.191h26.3a1.184,1.184,0,0,0,1.177-1.191V27.387a1.186,1.186,0,0,0-1.175-1.192m-21.835-6.687a8.684,8.684,0,1,1,17.368,0v6.687H388.266Zm20.656,11.673H384.977V28.575h23.944ZM384.977,19.512A1.187,1.187,0,0,0,383.8,18.32H380.51a1.192,1.192,0,0,0,0,2.384H383.8A1.186,1.186,0,0,0,384.977,19.512Zm1.276-9.135a1.169,1.169,0,0,0,1.665-.074,1.2,1.2,0,0,0,0-1.607L386.276,7.03a1.169,1.169,0,0,0-1.664.074,1.2,1.2,0,0,0,0,1.607Zm20.559.349a1.165,1.165,0,0,0,.831-.349l1.644-1.663a1.2,1.2,0,0,0,.073-1.683,1.169,1.169,0,0,0-1.665-.074,1.042,1.042,0,0,0-.075.076L405.977,8.7a1.2,1.2,0,0,0,0,1.685,1.17,1.17,0,0,0,.832.349Zm6.575,7.594H410.1a1.192,1.192,0,0,0,0,2.384h3.288a1.192,1.192,0,0,0,0-2.384M396.949,7.4a1.187,1.187,0,0,0,1.179-1.192V2.881a1.179,1.179,0,1,0-2.357,0V6.206A1.185,1.185,0,0,0,396.945,7.4h0" transform="translate(-379.333 -1.689)" fill="#e51d35"/>
</svg>
