<svg xmlns="http://www.w3.org/2000/svg" width="50" height="50" viewBox="0 0 50 50">
  <g id="RBB" transform="translate(-1035.722 -3820.722)">
    <rect id="Retângulo_5369" data-name="Retângulo 5369" width="50" height="50" transform="translate(1035.722 3820.722)" fill="#098838" opacity="0"/>
    <g id="Layer_2" data-name="Layer 2" transform="translate(1038.969 3828.178)">
      <g id="svg6302" transform="translate(0.018)">
        <path id="path4004" d="M48.07,0V23.512a5.97,5.97,0,0,0,.81,3.567l.031.056.037.054a17.666,17.666,0,0,0,29.44,0l.035-.054.033-.056a5.97,5.97,0,0,0,.81-3.567V0Z" transform="translate(-41.799)" fill="#fff" fill-rule="evenodd"/>
        <path id="path4008" d="M50.86,2.8V25.944a5.588,5.588,0,0,0,.769,3.386l.023.047.022.047a17.316,17.316,0,0,0,28.84,0l.035-.047.023-.047a5.552,5.552,0,0,0,.757-3.386V2.8Zm.466.465H80.859V25.944a5.144,5.144,0,0,1-.7,3.154l-.023.035-.012.022a16.834,16.834,0,0,1-28.057,0l-.023-.022-.023-.035a5.156,5.156,0,0,1-.7-3.154V3.265Zm.2.2V25.944a4.985,4.985,0,0,0,.664,3.05l.022.034.012.023a16.633,16.633,0,0,0,27.718,0l.023-.023.012-.034a4.97,4.97,0,0,0,.675-3.05V3.463Zm.838.85H79.811V25.944a4.149,4.149,0,0,1-.559,2.631,15.79,15.79,0,0,1-26.321,0,4.161,4.161,0,0,1-.559-2.631V4.312Z" transform="translate(-44.225 -2.435)" fill="#0f2d5b"/>
        <path id="path4024" d="M79.792,21.26v2.815a1.617,1.617,0,0,0-1.141-.476,1.863,1.863,0,0,0,0,3.711,1.621,1.621,0,0,0,1.152-.488v.454h1.124V21.26Zm11.509.034v5.994h1.127V21.294Zm1.92,0v5.994h1.129V21.294Zm-24.611.291v5.691h1.21V22.562h.722a.753.753,0,0,1,.783.745.774.774,0,0,1-.8.745h-.283v1.361l1.21,1.862h1.42L71.193,24.9a1.678,1.678,0,0,0-.407-3.317H68.61Zm13.871.033v5.658h2.513a1.7,1.7,0,0,0,1.733-1.63,1.443,1.443,0,0,0-.989-1.465,1.465,1.465,0,0,0,.082-2.13,1.836,1.836,0,0,0-1.4-.431Zm1.21.977h.767a.606.606,0,0,1,0,1.21h-.392v1.013h.722a.733.733,0,0,1,0,1.467H83.694Zm-9.111,1a1.905,1.905,0,1,0,1.734,2.885l-.932-.427a.783.783,0,0,1-.71.442.739.739,0,0,1-.767-.71c0-.025-.014-.022-.012-.046h2.513a1.957,1.957,0,0,0,.012-.234A1.752,1.752,0,0,0,74.579,23.6Zm12.543.2v2.272A1.621,1.621,0,0,0,88.9,27.45a1.6,1.6,0,0,0,1.768-1.385V23.8H89.555v2.049a.652.652,0,1,1-1.3,0V23.8Zm-12.528.594a.7.7,0,0,1,.7.7H73.9a.7.7,0,0,1,.694-.7Zm4.387.187a.937.937,0,1,1-.838.913.874.874,0,0,1,.838-.913Z" transform="translate(-59.659 -18.486)" fill="#e41349"/>
        <path id="path4048" d="M121.1,73.2a8.151,8.151,0,1,1-8.15-8.151A8.151,8.151,0,0,1,121.1,73.2" transform="translate(-91.126 -56.561)" fill="#fdd205" fill-rule="evenodd"/>
        <path id="path4052" d="M28.932,91.452c-.082-.158-.367-.506-.329-.728.209.026.522.027.645.034-.038.068-.275.613-.316.694m14.532,2.421a1.9,1.9,0,0,0-.06-.184l-.018-.05c-.016-.04-.03-.08-.046-.124-.007-.018-.012-.038-.016-.054a.165.165,0,0,1,0-.035.743.743,0,0,0-.13-.509.312.312,0,0,0-.235-.174.119.119,0,0,1-.114.077h-.026a.13.13,0,0,1-.1-.14v-.051a.329.329,0,0,0-.042-.174,1.884,1.884,0,0,0-.851-.607.652.652,0,0,0-.485.253.119.119,0,0,1-.094.044h-.012a.123.123,0,0,1-.1-.064.953.953,0,0,1-.05-.111,2.294,2.294,0,0,1-.082-.3l-.017-.077a.7.7,0,0,0-.493-.621.6.6,0,0,0-.108-.018.765.765,0,0,1-.12-.007h-.031a1.662,1.662,0,0,1-.213-.013c-.142-.021-.238-.067-.238-.227a.13.13,0,0,1,.007-.039l.038-.11a2.8,2.8,0,0,0,.1-.35,1.689,1.689,0,0,0,.014-.743.131.131,0,0,1,.12-.15h.018a1.958,1.958,0,0,0,.29.023A1.831,1.831,0,0,0,42.3,87.567a2.932,2.932,0,0,0-1.108-1.914.131.131,0,0,1-.037-.12.123.123,0,0,1,.089-.089A1.336,1.336,0,0,0,42.356,84.1v-.054a2.177,2.177,0,0,0-.021-.356,1.3,1.3,0,0,0-.2-.51.076.076,0,0,0-.069-.037.107.107,0,0,0-.03,0,.285.285,0,0,0-.08.04c-.067.044-.163.13-.241.193a.994.994,0,0,1-.341.181c-.09.029-.184.055-.283.08l-.162.044a2.671,2.671,0,0,0-1.131.6,1.056,1.056,0,0,0-.335.71,1.09,1.09,0,0,0,.253.7,4.653,4.653,0,0,0,.585.63l.077.074.227.231c.114.114.2.206.27.292a.914.914,0,0,1,.253.551.57.57,0,0,1-.625.581,2.073,2.073,0,0,1-1.184-.457l-.209-.141c-.149-.1-.3-.2-.471-.309a7.192,7.192,0,0,0-.9-.482,3.269,3.269,0,0,0-.5-.176c-.131-.034-.252-.06-.369-.085l-.052-.009a1.99,1.99,0,0,1-.743-.273l-.214-.145-.391-.261a2.785,2.785,0,0,0-.652-.317,1.317,1.317,0,0,0-.2-.043l-.1-.013-.08-.01a.876.876,0,0,1-.334-.1c-.069-.04-.13-.085-.209-.138-.052-.039-.1-.078-.153-.119l-.035-.027a3.394,3.394,0,0,0-.495-.329,3.86,3.86,0,0,0-.955-.339l-.056-.014c-.111-.027-.207-.05-.29-.077a.668.668,0,0,1-.111-.044.428.428,0,0,1-.04-.025.179.179,0,0,1-.022-.022,2.362,2.362,0,0,0-1.815-.968,1.512,1.512,0,0,0-.158.009,2.17,2.17,0,0,0-.925.522c-.107.087-.217.181-.328.277-.226.192-.458.391-.686.553a11.605,11.605,0,0,0-2.17,1.789,5.808,5.808,0,0,0-1.2,2.8l-.016.067a11.376,11.376,0,0,1-.361,1.34,3.293,3.293,0,0,1-.7,1.188,4.631,4.631,0,0,1-.369.351,1.825,1.825,0,0,1-.167.131l-.03.022a.282.282,0,0,0-.138.318.558.558,0,0,0,.557.307.121.121,0,0,1,.116.15.162.162,0,0,0,.033.147.624.624,0,0,0,.414.18h.051a1.939,1.939,0,0,0,1.441-.62.121.121,0,0,1,.089-.038.131.131,0,0,1,.084.031.893.893,0,0,0,.616.223H26.1a3.289,3.289,0,0,0,.35-.025c.055,0,.108-.013.159-.016h.132a1.3,1.3,0,0,1,.27.067c.082.029.17.063.261.1l.08.031a2.049,2.049,0,0,0,.632.164h.033a.731.731,0,0,0,.672-.555.12.12,0,0,1,.116-.086h0a.121.121,0,0,1,.115.094c.012.047.023.093.037.137a1.019,1.019,0,0,0,.3.51.343.343,0,0,0,.174.072,1.956,1.956,0,0,0,.3.018.131.131,0,0,1,.074.025.743.743,0,0,1,.067.063c.029.029.059.059.087.082a.344.344,0,0,0,.108.068,8.058,8.058,0,0,0,1.845.449h.016c.556,0,.745-.534.8-.763a.121.121,0,0,1,.1-.091c.522-.1.8-.882.8-1.015,0-.251-.1-.35-.347-.368h-.9a.248.248,0,0,0-.06.009.1.1,0,0,1-.034,0,.12.12,0,0,1-.1-.057.189.189,0,0,0-.13-.09.123.123,0,0,1-.091-.091.13.13,0,0,1,.038-.117c.02-.016.037-.031.054-.047a.131.131,0,0,1,.085-.033h0c.13,0,.363.014.591.014H33c.181-.01.334-.029.495-.047a7.111,7.111,0,0,1,.9-.059l.852.04a1.632,1.632,0,0,0,.491-.069.117.117,0,0,1,.037,0,.121.121,0,0,1,.123.107,2.331,2.331,0,0,0,.406,1.091.882.882,0,0,0,.217.2c.048.033.1.063.15.094l.09.055a1.585,1.585,0,0,0,.847.312,1.134,1.134,0,0,0,.284-.037,1.231,1.231,0,0,1,.318-.039,1.288,1.288,0,0,1,.159.009,2.532,2.532,0,0,1,.359.07l.025.007a1.7,1.7,0,0,1,.466.194,3.525,3.525,0,0,1,.335.221l.027.021a1.151,1.151,0,0,0,.706.313h.035a.2.2,0,0,0,.051-.01l.057-.017.13-.052a.883.883,0,0,1,.157-.051h.025a.123.123,0,0,1,.1.055c.016.022.031.047.047.073.03.047.06.1.1.146a.94.94,0,0,0,.8.352h.13a3.2,3.2,0,0,0,.475-.03h.02a.131.131,0,0,1,.07.023.281.281,0,0,0,.166.052,1.546,1.546,0,0,0,.476-.1.929.929,0,0,0,.226-.115.291.291,0,0,0,.131-.18.446.446,0,0,0-.016-.179M15.19,90.953c-.084.1-.209.131-.322.337-.23-.09-.27-.391-.312-.522.183-.033.616-.116.843-.15a1.074,1.074,0,0,0-.209.337m5.451.951a1.27,1.27,0,0,1-.462-.493c-.042-.07-.08-.141-.116-.21l-.043-.081a2.021,2.021,0,0,0-.167-.27,1.215,1.215,0,0,0-.089-.1l-.093-.1c-.029-.03-.056-.06-.08-.089a.336.336,0,0,1-.046-.074,10.19,10.19,0,0,1-.652-2.67,3.464,3.464,0,0,0-.932-1.614c-.067-.081-.141-.176-.219-.278-.054-.069-.11-.142-.167-.214a5.414,5.414,0,0,0-.428-.492l-.509-.431c-.215-.183-.391-.338-.566-.476a10.318,10.318,0,0,0-.846-.637,2.218,2.218,0,0,0-1.248-.4,1.7,1.7,0,0,0-.885.221,5.264,5.264,0,0,1-.976.547c-.231.1-.47.174-.774.273l-.315.1a2.088,2.088,0,0,0-.762.476l-.12.116c-.043.04-.084.081-.121.115a.591.591,0,0,1-.183.131,1.117,1.117,0,0,1-.261.04l-.193.01h-.13a1.644,1.644,0,0,0-.913.411c-.106.086-.2.176-.3.261L8,86.024a2.45,2.45,0,0,1-.3.239,1.713,1.713,0,0,1-.838.236,4.4,4.4,0,0,0-.471.064,2.593,2.593,0,0,0-.57.191,4.807,4.807,0,0,0-.686.41c-.115.08-.227.161-.338.243l-.294.21a2.188,2.188,0,0,1-1.22.512.669.669,0,0,1-.726-.6,1.049,1.049,0,0,1,.462-.913l.183-.146c.13-.11.261-.211.38-.311a2.817,2.817,0,0,0,.425-.432,1.19,1.19,0,0,0,.206-1.095,1.144,1.144,0,0,0-.913-.8,4.114,4.114,0,0,0-.544-.117L2.7,83.7l-.144-.023a.681.681,0,0,1-.119-.03,10.14,10.14,0,0,1-1.006-.611L1.385,83l-.034.048a1.5,1.5,0,0,0,1.034,2.328.124.124,0,0,1,.057.219c-.913.719-1.111,1.028-1.159,1.837a1.827,1.827,0,0,0,.482,1.349,2.041,2.041,0,0,0,1.539.6,3.523,3.523,0,0,0,.536-.043h.018a.123.123,0,0,1,.123.114,3.2,3.2,0,0,0,.271,1.224.12.12,0,0,1-.021.155.587.587,0,0,1-.179.1,2.349,2.349,0,0,1-.783.123c-.184,0-.321.13-.431.4-.037.089-.065.183-.094.274l-.008.025c-.014.047-.029.09-.042.13a.928.928,0,0,1-.04.093.8.8,0,0,1-.167.2.131.131,0,0,1-.082.03H2.384A.123.123,0,0,1,2.3,92.14a.609.609,0,0,0-.423-.308H1.843a1.147,1.147,0,0,0-.946.684.123.123,0,0,1-.1.076H.774a.489.489,0,0,0-.444.326,1.473,1.473,0,0,0-.069.261l-.013.061c-.012.068-.026.138-.043.206a.653.653,0,0,1-.059.157L.1,93.676c-.01.017-.021.033-.03.05a.427.427,0,0,0-.035.345.313.313,0,0,0,.171.188,1.174,1.174,0,0,0,.273.1,2.278,2.278,0,0,0,.425.063.163.163,0,0,0,.08-.022.594.594,0,0,0,.057-.04.137.137,0,0,1,.081-.027h.02l.09.017L1.5,94.4h.016l.247.048c.039.007.073.013.1.016a.37.37,0,0,0,.064,0h0a.747.747,0,0,0,.652-.313,1.446,1.446,0,0,0,.085-.131l.044-.074.033-.056c.031-.054.063-.1.1-.15a.156.156,0,0,1,.132-.051,1.3,1.3,0,0,0,.13.027c.09.014.172.022.206.025a.745.745,0,0,0,.076,0,1.352,1.352,0,0,0,.864-.392l.074-.063c.035-.03.069-.06.1-.087a1.758,1.758,0,0,1,.166-.13.522.522,0,0,1,.292-.107H4.9a8.83,8.83,0,0,1,.979.117.458.458,0,0,0,.073,0,1.232,1.232,0,0,0,.479-.13,3.94,3.94,0,0,0,.457-.247,1.009,1.009,0,0,1,.13-.064l.014-.007c.046-.021.094-.043.145-.069a1.007,1.007,0,0,0,.335-.261,2.842,2.842,0,0,0,.234-.42l.093-.187c.05-.1.1-.214.158-.322a.123.123,0,0,1,.11-.068h.035A4.234,4.234,0,0,0,8.7,91.25l.232-.037c.167-.026.311-.048.418-.054a1.608,1.608,0,0,1,.2.012l.222.016c.279.017.508.025.7.025a2.882,2.882,0,0,0,.295-.009,1.884,1.884,0,0,0,.391-.067.714.714,0,0,0,.1-.037.131.131,0,0,1,.05-.009.116.116,0,0,1,.085.035c.061.059.13.119.193.177a.123.123,0,0,1-.072.214l-.072.008a.455.455,0,0,0-.292.13.13.13,0,0,1-.146.038.248.248,0,0,0-.052-.018.392.392,0,0,0-.1-.013h-.157a3.84,3.84,0,0,0-.6.038.974.974,0,0,0-.326.1.261.261,0,0,0-.154.243,2.642,2.642,0,0,0,.561,1.078.6.6,0,0,0,.351.089h.064a.131.131,0,0,1,.11.067,1.232,1.232,0,0,0,.977.748H11.7a7.544,7.544,0,0,0,1.913-.652l.025-.009a.494.494,0,0,1,.07-.012l.13-.016.065-.008a1.451,1.451,0,0,0,.424-.1,1.4,1.4,0,0,0,.4-.522.131.131,0,0,1,.11-.067h.012a.12.12,0,0,1,.106.086.783.783,0,0,0,.057.142.607.607,0,0,0,.585.313h.046a2.34,2.34,0,0,0,.585-.131l.1-.034a3.308,3.308,0,0,1,.442-.131.924.924,0,0,1,.17-.013h.093l.176.013.12.009c.056,0,.115.007.176.007a.932.932,0,0,0,.42-.082,1.893,1.893,0,0,0,.391-.231l.033-.023a.119.119,0,0,1,.072-.023.121.121,0,0,1,.081.031,2.3,2.3,0,0,0,1.531.577h.078a.5.5,0,0,0,.4-.17.261.261,0,0,0,.046-.235.124.124,0,0,1,.1-.153.6.6,0,0,0,.3-.131.32.32,0,0,0,.112-.223.17.17,0,0,0-.056-.131,1.594,1.594,0,0,0-.376-.243" transform="translate(-0.018 -72.169)" fill="#fff"/>
        <path id="path4056" d="M135.81,62.853a4.083,4.083,0,1,1,4.083,4.083,4.083,4.083,0,0,1-4.083-4.083" transform="translate(-118.089 -51.101)" fill="#fff"/>
        <path id="path4060" d="M143.543,78.316a4.022,4.022,0,0,0,6.337-3.6,4.21,4.21,0,0,0-.13-.693,3.776,3.776,0,1,1-6.212,4.3" transform="translate(-124.809 -64.361)" fill="#d3d3d3"/>
        <path id="Caminho_2334" data-name="Caminho 2334" d="M159.118,61.08a3.749,3.749,0,0,0-1.2.2l.722.581a8.916,8.916,0,0,1,1.664.023,1.775,1.775,0,0,0,.221-.522A3.773,3.773,0,0,0,159.118,61.08Z" transform="translate(-137.314 -53.109)" fill="#091d3c" fill-rule="evenodd"/>
        <path id="Caminho_2335" data-name="Caminho 2335" d="M140.261,68.84a3.765,3.765,0,0,0-1.071,1.78c.084-.123.269-.4.489-.675A10.206,10.206,0,0,1,140.261,68.84Z" transform="translate(-121.028 -59.856)" fill="#091d3c" fill-rule="evenodd"/>
        <path id="Caminho_2336" data-name="Caminho 2336" d="M148.251,75.88s-1.034.465-1.425.668a9.779,9.779,0,0,0,.023,1.7,14.892,14.892,0,0,0,1.477.431s.652-1.044.885-1.489A12.264,12.264,0,0,0,148.251,75.88Z" transform="translate(-127.646 -65.978)" fill="#091d3c" fill-rule="evenodd"/>
        <path id="Caminho_2337" data-name="Caminho 2337" d="M178.522,76.15a9.4,9.4,0,0,0-.722,1.245c.33.692.783,1.443.783,1.443a4.864,4.864,0,0,0,1.117-.419,4.965,4.965,0,0,0-.047-1.618A7.2,7.2,0,0,0,178.522,76.15Z" transform="translate(-154.6 -66.213)" fill="#091d3c" fill-rule="evenodd"/>
        <path id="Caminho_2338" data-name="Caminho 2338" d="M138.84,96.48a3.752,3.752,0,0,0,1.267,2.059.948.948,0,0,0,.151-.13,13.517,13.517,0,0,1-.826-1.326S139.041,96.689,138.84,96.48Z" transform="translate(-120.724 -83.89)" fill="#091d3c" fill-rule="evenodd"/>
        <path id="Caminho_2339" data-name="Caminho 2339" d="M162.059,107l-1.64.047-.629.9a3.276,3.276,0,0,0,1.221.513,5.931,5.931,0,0,0,1.362-.559Z" transform="translate(-138.94 -93.037)" fill="#091d3c" fill-rule="evenodd"/>
        <path id="path4072" d="M3.857,86.44a.829.829,0,0,0-.13.535,1.3,1.3,0,0,0,.826,1.013c.249.107.535.025.791.081a.251.251,0,0,1,.151.187.269.269,0,0,1-.081.187,7.826,7.826,0,0,0-1.152,1.07,1.58,1.58,0,0,0-.221,1.548,1.669,1.669,0,0,0,1.338.989,3,3,0,0,0,1.141-.131c.05,0,.072.052.093.081a7.482,7.482,0,0,0,.059.913,5.774,5.774,0,0,0,.261.745.3.3,0,0,1-.07.261,3.018,3.018,0,0,1-.639.373l-.559.034-.1.047a2.957,2.957,0,0,0-.337.759,2.052,2.052,0,0,1-.756.592,1.758,1.758,0,0,1-.288.385.578.578,0,0,1-.338.116,1.6,1.6,0,0,0-.279.826c.313.029.637.194.942.023.261-.121.325-.436.522-.629.157-.171.391-.047.581-.012.278.014.475-.187.71-.279.163-.106.295-.288.466-.391a1.967,1.967,0,0,1,1.129,0,1.211,1.211,0,0,0,.791-.081,2.519,2.519,0,0,1,.675-.361,1.073,1.073,0,0,0,.419-.57c.091-.206.261-.348.245-.57-.057-.05-.13-.158-.21-.15-.107.149-.181.311-.3.453-.514.7-.921.769-1.967.769a2.442,2.442,0,0,0-2.012.814.1.1,0,0,1-.116-.023c-.022-.085.057-.227.093-.291a2.3,2.3,0,0,1,2-.85,3.028,3.028,0,0,0,1.2-.279,1.8,1.8,0,0,0,.846-.933c.093-.449.13-.934.244-1.361.014-.043.116-.073.151-.059s.13.043.13.093a2.663,2.663,0,0,0-.046,1.4c.338.453.977.207,1.435.192a8.155,8.155,0,0,1,1.327.023c.227,0,.4.038.582-.1a.391.391,0,0,0,.046-.268c-.014-.13-.12-.207,0-.314a.177.177,0,0,1,.175.035,1.937,1.937,0,0,0,.21.522,2.712,2.712,0,0,0,.872.686,1.177,1.177,0,0,1,.57.861c0,.184-.171.311-.313.392a1.468,1.468,0,0,1-.792.2c-.377-.185-.471-.592-.722-.885a.6.6,0,0,0-.512-.151,2.74,2.74,0,0,0-.606.093.175.175,0,0,0-.057.163c.13.235.277.463.419.7.163.1.391-.05.535.13a1.944,1.944,0,0,0,.384.547.671.671,0,0,0,.686.13,8.47,8.47,0,0,0,1.536-.592h.163a.871.871,0,0,0,.57-.163,5.752,5.752,0,0,0,.407-.7.692.692,0,0,0,.012-.582,3.393,3.393,0,0,1-.512-.977,1.044,1.044,0,0,0-.361-.1c-.064.029-.15.01-.185.081l.559,1.117a.564.564,0,0,1,.057.314,1.472,1.472,0,0,1-.391.639c-.035.022-.076.039-.1-.012a2.564,2.564,0,0,0,.163-.783l-.542-.981c-.065-.131-.183-.261-.175-.419,0-.072.07-.111.13-.14.241-.078.536-.064.722-.261a2.765,2.765,0,0,0,.348-1.2.177.177,0,0,1,.116-.081c.043-.014.1.048.117.069a1.854,1.854,0,0,1-.315,1.374c-.014.05-.034.115.023.151a1.027,1.027,0,0,0,.783-.131,4.28,4.28,0,0,0,.826-.1c.029.014.059.042.059.07a1.357,1.357,0,0,0-.326.675c-.214.221-.522.412-.547.733.035.157.175.008.261.023a.078.078,0,0,1,.07.081l-.21.315c-.114.185.012.4.012.582a.391.391,0,0,0,.372.209,3.149,3.149,0,0,0,.9-.232,1.934,1.934,0,0,1,1.044-.07,1.428,1.428,0,0,0,.827-.465.512.512,0,0,1,.348.2,1.827,1.827,0,0,0,1.443.57l.057-.023a.086.086,0,0,0-.022-.131l-.338-.166a1.354,1.354,0,0,1-.606-.616,3.108,3.108,0,0,0-.337-.71c-.051-.114-.172-.213-.222-.326a.065.065,0,0,1,.059-.023,1.517,1.517,0,0,1,.756.816,1.226,1.226,0,0,0,1.174.616l.047-.035a.087.087,0,0,0,0-.093l-.261-.131c-.428-.249-.6-.711-.861-1.082-.093-.131-.261-.226-.35-.361a9.75,9.75,0,0,1-.639-2.618,2.765,2.765,0,0,0-.245-.7,15.1,15.1,0,0,0-1.373-1.768,1.659,1.659,0,0,0-.13-.14l-1.681-1.405a3.354,3.354,0,0,0-.675-.361,1.73,1.73,0,0,0-1.2.047,6.632,6.632,0,0,1-1.071.589,5.73,5.73,0,0,0-1.664.732c-.277.243-.506.612-.913.548a1.784,1.784,0,0,0-1.223.441,2.328,2.328,0,0,1-1.023.7c-.356.15-.783.074-1.152.21a4.891,4.891,0,0,0-1.524.942,2.958,2.958,0,0,1-1.566.582,1.044,1.044,0,0,1-.907-.686,1.156,1.156,0,0,1,.36-1.2c.363-.433.937-.688,1.221-1.186a.914.914,0,0,0-.069-.942A2.59,2.59,0,0,0,4.7,86.914,3.93,3.93,0,0,1,3.857,86.44Zm28.288.023a.947.947,0,0,0-.535.3,37.9,37.9,0,0,0-3.329,2.7,5.338,5.338,0,0,0-1.105,2.409c-.356,1.282-.5,2.688-1.792,3.479a.1.1,0,0,0,.023.13.949.949,0,0,0,.907-.279,6.748,6.748,0,0,1,.757-1l.069-.034c.037,0,.073.02.059.069-.086.284-.334.5-.419.783a2.216,2.216,0,0,1-.722.848l-.012.035a.094.094,0,0,0,.07.082,2.1,2.1,0,0,0,1.5-.838.144.144,0,0,1,.151-.023,1.65,1.65,0,0,0,.606.407,3.689,3.689,0,0,1,.791-.047c.377.115.74.268,1.117.392.192-.007.331-.192.431-.348.078-.185-.026-.369-.012-.547.093-.057.192.017.291-.012a.17.17,0,0,0,.081-.131c-.07-.328-.36-.578-.453-.885-.144-.391-.6-.628-.686-1.044.021-.029.056-.064.093-.035a2.321,2.321,0,0,0,.942.57,5.007,5.007,0,0,0,.873.034.1.1,0,0,0,.057-.116,4.412,4.412,0,0,1-.3-.791,2.353,2.353,0,0,1-.059-1.221c.021-.029.108-.084.151-.07a.224.224,0,0,1,.14.14,2.808,2.808,0,0,0,.338,1.64c.155.249.424.3.616.489a.407.407,0,0,1,.047.372l-.442.641a1.4,1.4,0,0,0-.232.465,1.732,1.732,0,0,0,0,.513c-.029.013-.042-.021-.07-.035a.991.991,0,0,1-.116-.814l.547-.85.012-.07a1.738,1.738,0,0,0-.384-.151c-.064.03-.1.1-.14.151l-.535.967a.56.56,0,0,0-.047.325,1.435,1.435,0,0,0,.131.391,1.91,1.91,0,0,0,.175.522c.13.149.318,0,.488.046s.236.253.407.3c.385.13.792.2,1.174.35.2.064.485.14.663-.023a.8.8,0,0,0,.361-.641c.078-.106.235-.069.348-.1.214-.142.286-.4.442-.594l.023-.093a.207.207,0,0,0-.13-.13h-.733c-.335.043-.358.412-.5.639a.411.411,0,0,1-.408.187c-.341-.093-.75-.142-.907-.512A.273.273,0,0,1,33,95.136a4.424,4.424,0,0,1,.6-.617,1.267,1.267,0,0,0,.792-.57c.085-.121.067-.3.209-.391.043,0,.131-.008.163.035.064.206-.052.356-.116.535.783.078,1.387-.145,2.14-.116.321,0,.607.033.913.012a.8.8,0,0,0,.757-.478,2.639,2.639,0,0,0-.13-1.292l.082-.069c.05-.029.138.017.175.046a6.565,6.565,0,0,1,.279,1.245,2.24,2.24,0,0,0,.419.913,1.528,1.528,0,0,0,1.629.617,2.235,2.235,0,0,1,1.908.942v.035c-.014.027-.046.065-.081.057a2.819,2.819,0,0,0-1.327-.71c-.522-.1-1,.175-1.548-.046a1.91,1.91,0,0,1-1.221-1.268h-.057c-.043,0-.063.05-.07.093l.07.442a1.2,1.2,0,0,0,.581.93c.3.177.585.437.955.338a2.267,2.267,0,0,1,1.8.407,3.623,3.623,0,0,0,.476.326.6.6,0,0,0,.582-.094c.364-.12.449.337.7.5.221.213.662.131.954.131l-.012-.035a2.577,2.577,0,0,0-.221-.783c-.363.021-.543-.365-.757-.594-.177-.206-.531-.334-.522-.641a4.669,4.669,0,0,1-.14-.465c-.05-.131-.1-.309-.268-.338-.307-.05-.669.029-.861-.261-.2-.214.01-.457.047-.663a2.049,2.049,0,0,0,.057-.885c0-.157-.121-.286-.093-.442.072-.13.243-.038.35-.023a1.927,1.927,0,0,0,1.233-.1,1.461,1.461,0,0,0,.873-1.315,2.932,2.932,0,0,0-1.174-1.849c-.107-.093-.244-.192-.279-.326-.013-.292.313-.15.478-.221a1.7,1.7,0,0,0,.559-.21,1.246,1.246,0,0,0,.441-1.3c-.013-.042,0-.1-.069-.1a2.142,2.142,0,0,1-.261.21c-.278.163-.639.131-.932.279a1.642,1.642,0,0,0-.966.791.9.9,0,0,0,.094.594c.441.7,1.374,1.15,1.524,1.99a.778.778,0,0,1-.373.783,1.516,1.516,0,0,1-1.4-.059,17.062,17.062,0,0,0-2.268-1.291c-.522-.235-1.155-.172-1.618-.536a4.079,4.079,0,0,0-1.07-.628,5.033,5.033,0,0,1-.814-.21,3.932,3.932,0,0,0-.826-.592,5.57,5.57,0,0,0-1.327-.407c-.27-.064-.372-.375-.594-.522A1.83,1.83,0,0,0,32.145,86.463Zm-.047,1.7a.234.234,0,0,1,.116,0,.157.157,0,0,1,.094.093.146.146,0,0,1,.022.081.19.19,0,0,1-.012.07l-.034.057-.035.047-.221.21-.245.232a2.61,2.61,0,0,0-.391.466,2.112,2.112,0,0,0-.187.337.069.069,0,0,1-.081.035l-.023-.012a.03.03,0,0,1,0-.012.441.441,0,0,1-.023-.14.764.764,0,0,1,.012-.131l.047-.187.023-.069A2.492,2.492,0,0,1,32,88.2a.307.307,0,0,1,.107-.033Zm-15.324.488a.214.214,0,0,1,.1.012l.012.012A.955.955,0,0,1,17.15,89a1.533,1.533,0,0,1,.1.592,1.861,1.861,0,0,1-.057.489v.012h-.012a.074.074,0,0,1-.094.012s0-.009,0-.012-.012-.012-.012-.012a4.509,4.509,0,0,0-.232-.861l-.059-.116-.034-.035-.05-.074a.261.261,0,0,1-.035-.279l.012-.012a.158.158,0,0,1,.091-.051Zm3.245,2.781a.353.353,0,0,1,.094.023.586.586,0,0,1,.209.221l.023.047.047.07.081.1a1.134,1.134,0,0,1,.338.756.816.816,0,0,1-.012.187l-.023.059-.023.069a.13.13,0,0,1-.1.093.07.07,0,0,1-.07-.01.087.087,0,0,1-.034-.07l-.012-.069-.023-.21a.637.637,0,0,0-.093-.261l-.094-.1-.1-.131a.376.376,0,0,0-.244-.13.424.424,0,0,0-.175.13l-.07.093-.069.093c-.025.042-.081.012-.081.012h-.012s0-.012,0-.012a.355.355,0,0,1-.023-.13.449.449,0,0,1,.046-.175l.059-.116.059-.14.012-.012a.359.359,0,0,0,.057-.116l.023-.047.035-.1a.183.183,0,0,1,.185-.115Zm8.832.244a.261.261,0,0,1,.261.151,2.255,2.255,0,0,1,.3.547.142.142,0,0,1,0,.047.14.14,0,0,1,0,.023l-.023.069a.228.228,0,0,1-.057.07.085.085,0,0,1-.093,0,.206.206,0,0,1-.094-.07l-.035-.046-.022-.047c-.033-.055-.065-.1-.14-.093a.23.23,0,0,0-.151.057l-.047.035-.023.012-.081.059-.1.081-.035.035-.151.14a.573.573,0,0,0-.175.3l-.023.081v.04l-.012.046a.184.184,0,0,1-.081.131.108.108,0,0,1-.151-.093,1.07,1.07,0,0,1,.338-.885,2.039,2.039,0,0,0,.3-.325l.094-.116.185-.234Zm-9,2.6H19.9l.047.012a.114.114,0,0,1,.081.093.822.822,0,0,1,.012.1.364.364,0,0,1-.116.3h-.012a1.258,1.258,0,0,1-.442.059l-.012-.012-.034-.012L19.4,94.8a.074.074,0,0,1-.035-.081.707.707,0,0,1,.476-.452Zm8.9.151h.012a.522.522,0,0,1,.419.175l.023.057.046.093a.22.22,0,0,1,.023.082.176.176,0,0,1-.023.081v.012a.292.292,0,0,1-.185.047l-.14-.023h-.047l-.012-.012a.456.456,0,0,1-.175-.384.13.13,0,0,1,.047-.116l.01-.009Zm-24.612.689a.591.591,0,0,0-.082.023,3.7,3.7,0,0,1-.488.348c-.072.05-.044.155-.059.234s.085.12.13.162a.348.348,0,0,0,.261.012,1.407,1.407,0,0,0,.476-.57.467.467,0,0,0-.17-.192.072.072,0,0,0-.069-.017Zm39.982.012c-.106,0-.2.13-.261.209a1.848,1.848,0,0,0,.3.466.342.342,0,0,0,.261.151.391.391,0,0,0,.244-.1.285.285,0,0,0,.082-.234,2.645,2.645,0,0,0-.513-.442.183.183,0,0,0-.116-.04Zm-40.971.788a.493.493,0,0,0-.261.291c-.037.227.014.441-.163.606,0,.043-.043.1,0,.14a2.54,2.54,0,0,0,.5.131c.086-.278.145-.585.245-.826v-.07C3.375,96.073,3.289,95.94,3.147,95.909Zm41.833.047c-.1.085-.243.176-.221.325a5.073,5.073,0,0,1,.185.71c.029.05,0,.151.082.151l.453-.151c.08-.131-.064-.227-.093-.348-.035-.164,0-.392-.1-.535-.093-.068-.183-.177-.3-.149Z" transform="translate(-2.353 -75.16)" fill="#e41349"/>
        <path id="path4084" d="M87.515,150.979c.142.157.131.391.3.522a.724.724,0,0,0,.57-.177c.093-.078-.043-.179-.056-.271-.094-.131-.03-.406-.261-.412a4.457,4.457,0,0,1-.684.043l-.064.043c-.043.13.157.13.192.261" transform="translate(-75.922 -130.982)" fill="#e41349"/>
        <path id="path4096" d="M238.412,151.554c-.192.037-.412,0-.606.022a.689.689,0,0,0-.142.455c.022.177.221.192.348.241.121.014.3.057.364-.07a2.8,2.8,0,0,0,.163-.583.1.1,0,0,0-.131-.065" transform="translate(-206.651 -131.771)" fill="#e41349"/>
        <path id="Caminho_2340" data-name="Caminho 2340" d="M211.958,185.11c.551.619,1.07,1.262,1.6,1.9.073.09.081.138-.022.2s-.2.232-.311.214-.167-.175-.247-.271l-2.871-3.514c-.067-.08-.08-.121.012-.194.291-.234.288-.24.572,0,.645.551,1.33,1.053,1.957,1.626.033-.061-.02-.081-.046-.107-.6-.652-1.143-1.339-1.706-2.016-.061-.074-.05-.107.021-.157.112-.078.218-.232.324-.231s.183.183.269.287l2.871,3.5c.073.089.061.13-.021.193-.286.231-.281.231-.57-.008q-.889-.733-1.784-1.464C211.954,185.054,211.937,185.063,211.958,185.11Z" transform="translate(-182.642 -158.736)" fill="#001d46"/>
        <path id="Caminho_2341" data-name="Caminho 2341" d="M175.742,203.665c-.055-.253-.115-.509-.163-.769-.115-.632-.222-1.265-.339-1.9-.017-.1.016-.115.1-.13.418-.086.411-.086.484.345q.369,2.173.748,4.344c.04.239.044.239-.2.284s-.261.047-.345-.194c-.285-.8-.629-1.566-.9-2.372a.173.173,0,0,0-.021-.037c-.055.018-.026.052-.021.078.193.842.326,1.7.478,2.545.018.1,0,.137-.1.137a.869.869,0,0,0-.14.025c-.275.04-.271.04-.318-.239l-.783-4.548c-.022-.131,0-.177.138-.2.331-.048.333-.06.444.251.283.792.63,1.559.9,2.359C175.7,203.66,175.7,203.68,175.742,203.665Z" transform="translate(-151.472 -174.618)" fill="#001d46"/>
        <path id="Caminho_2342" data-name="Caminho 2342" d="M80.281,173.066a.522.522,0,0,1-.191.4l-1.274,1.044a.348.348,0,0,1-.322.085c-.068-.018-.1-.016-.1.076a.406.406,0,0,1-.187.331c-.415.341-.829.684-1.248,1.019a.509.509,0,0,1-.723-.072c-.213-.247-.412-.506-.624-.756-.064-.074-.022-.1.031-.146l3.051-2.479c.236-.192.475-.384.71-.579.067-.056.1-.057.158.017.191.245.391.484.587.724A.542.542,0,0,1,80.281,173.066Z" transform="translate(-65.721 -149.51)" fill="#001d46"/>
        <path id="Caminho_2343" data-name="Caminho 2343" d="M93.312,188.79l-.244-.188c-.209-.162-.228-.253-.078-.476.1-.144.209-.278.316-.415.261-.341.522-.684.8-1.02.067-.082.063-.131-.025-.18s-.2-.224-.3-.2-.166.176-.244.275c-.36.461-.723.913-1.078,1.385-.065.086-.107.087-.177.02-.1-.094-.283-.15-.29-.261s.14-.21.221-.315c.913-1.174,1.836-2.349,2.748-3.531.1-.13.157-.13.275-.03.211.183.441.343.659.522a.522.522,0,0,1,.093.783c-.318.414-.643.822-.962,1.235a.4.4,0,0,1-.345.191c-.053,0-.078.012-.061.072a.481.481,0,0,1-.131.432c-.313.4-.626.809-.945,1.21A.859.859,0,0,0,93.312,188.79Z" transform="translate(-79.986 -159.796)" fill="#001d46"/>
        <path id="Caminho_2344" data-name="Caminho 2344" d="M114.218,194.516a.795.795,0,0,1,.746,1.137c-.313.667-.634,1.328-.951,1.993-.284.592-.57,1.184-.848,1.779-.046.1-.081.117-.181.07-.369-.172-.369-.168-.194-.522.253-.522.5-1.054.757-1.579.043-.087.044-.131-.056-.175-.355-.168-.352-.172-.522.181-.251.522-.506,1.052-.753,1.58-.046.1-.093.124-.183.065s-.3-.08-.328-.191.084-.226.138-.338q.843-1.773,1.7-3.544A.769.769,0,0,1,114.218,194.516Z" transform="translate(-97.125 -169.132)" fill="#001d46"/>
        <path id="Caminho_2345" data-name="Caminho 2345" d="M158.632,205.468q-.034,1.06-.064,2.118c0,.1-.013.17-.138.13h-.016c-.407-.014-.4-.014-.38-.418.027-.583.04-1.168.063-1.753,0-.081-.018-.1-.1-.114-.411-.046-.412-.048-.425.369-.02.585-.039,1.174-.05,1.754,0,.106-.031.144-.131.13-.052-.007-.106,0-.158-.009-.251-.016-.253-.016-.245-.261q.067-2.021.13-4.045a.791.791,0,1,1,1.58.06Q158.665,204.45,158.632,205.468Z" transform="translate(-136.501 -176.17)" fill="#001d46"/>
        <path id="Caminho_2346" data-name="Caminho 2346" d="M227.436,176.383a.685.685,0,0,1-.471-.158q-1.413-1.094-2.821-2.188a.792.792,0,0,1,.958-1.261q1.435,1.1,2.859,2.218a.807.807,0,0,1,.236.89A.769.769,0,0,1,227.436,176.383Z" transform="translate(-194.642 -150.103)" fill="#001d46"/>
        <path id="Caminho_2347" data-name="Caminho 2347" d="M135.537,205.177a.783.783,0,0,1-.762-.932c.206-.913.432-1.827.652-2.74.059-.247.119-.492.177-.737a.813.813,0,0,1,.831-.652.79.79,0,0,1,.739.737,2.6,2.6,0,0,1-.144.756c0,.031-.023.044-.055.035a.305.305,0,0,0-.047-.01c-.436-.08-.433-.078-.331-.51.029-.12.13-.261.056-.355s-.226-.059-.337-.1-.144.013-.166.107q-.437,1.827-.878,3.654c-.02.077-.016.1.07.13.4.11.4.115.5-.284s.184-.783.283-1.165c.026-.1.025-.164-.093-.172-.085,0-.091-.053-.074-.119a.067.067,0,0,0,0-.016c.035-.13.033-.312.119-.378s.244.037.371.065c.351.081.35.082.261.429l-.392,1.627A.8.8,0,0,1,135.537,205.177Z" transform="translate(-117.177 -174)" fill="#001d46"/>
        <path id="Caminho_2348" data-name="Caminho 2348" d="M190.276,196.324c.012.057-.04.055-.069.067a1.827,1.827,0,0,1-.261.1c-.114.03-.141.07-.094.193.313.809.617,1.622.924,2.434.193.512.382,1.024.583,1.533.048.121.016.157-.1.2-.359.13-.358.13-.493-.224-.468-1.245-.941-2.489-1.4-3.736-.05-.131-.1-.154-.224-.1s-.235.145-.317.1-.087-.2-.14-.305c-.067-.131-.042-.181.1-.231.407-.142.809-.3,1.211-.457.087-.035.13-.023.157.07A3.186,3.186,0,0,0,190.276,196.324Z" transform="translate(-164.033 -170.318)" fill="#001d46"/>
        <path id="Caminho_2349" data-name="Caminho 2349" d="M205.579,196.667a1.056,1.056,0,0,1-.453.261.253.253,0,0,1-.053-.077q-1.19-2.108-2.38-4.219c-.04-.073-.046-.115.04-.155.123-.059.251-.193.356-.176s.15.209.217.326q1.112,1.965,2.218,3.931A1.224,1.224,0,0,0,205.579,196.667Z" transform="translate(-176.219 -167.204)" fill="#001d46"/>
        <path id="Caminho_2350" data-name="Caminho 2350" d="M83.211,189c0,.047-.033.059-.056.077-.391.324-.793.645-1.186.971-.064.052-.1.05-.153-.012-.271-.307-.274-.305.037-.56s.634-.506.942-.771c.1-.086.141-.06.2.029S83.142,188.917,83.211,189Z" transform="translate(-70.968 -164.036)" fill="#fefefe"/>
        <path id="Caminho_2351" data-name="Caminho 2351" d="M96.41,177.47c.03.034.059.064.085.1.247.3.247.295-.051.538-.318.261-.638.522-.954.783-.07.059-.106.067-.171-.012-.261-.309-.261-.305.056-.561l.93-.758Z" transform="translate(-82.718 -154.31)" fill="#fefefe"/>
        <path id="Caminho_2352" data-name="Caminho 2352" d="M109.9,189.683l-.063.084c-.313.4-.628.805-.94,1.21-.046.059-.078.084-.144.021-.1-.1-.283-.149-.294-.261-.008-.1.13-.209.217-.312.248-.32.5-.638.745-.96.052-.068.086-.087.157-.023s.164.13.247.2Z" transform="translate(-94.306 -164.685)" fill="#fefefe"/>
        <path id="Caminho_2353" data-name="Caminho 2353" d="M124.972,200.168c-.144-.07-.282-.13-.416-.2-.039-.02,0-.057.008-.081.223-.47.449-.938.671-1.408.033-.069.068-.07.131-.042.381.162.382.159.2.531l-.522,1.094a.2.2,0,0,1-.076.111Z" transform="translate(-108.289 -172.522)" fill="#fefefe"/>
        <path id="Caminho_2354" data-name="Caminho 2354" d="M162.314,208.378c0,.1-.008.146-.13.141-.391-.018-.391-.01-.376-.4s.026-.8.033-1.2c0-.1.014-.155.145-.15.377.014.376,0,.369.381C162.351,207.32,162.312,208.137,162.314,208.378Z" transform="translate(-140.691 -179.784)" fill="#fefefe"/>
        <path id="Caminho_2355" data-name="Caminho 2355" d="M227.818,176.08l.082.063q1.492,1.158,2.987,2.312c.077.06.089.1.02.17-.09.1-.144.274-.253.283s-.2-.131-.3-.213q-1.372-1.067-2.748-2.13c-.09-.068-.1-.108-.025-.189a1.9,1.9,0,0,0,.185-.236C227.781,176.12,227.8,176.1,227.818,176.08Z" transform="translate(-197.839 -153.102)" fill="#fefefe"/>
      </g>
    </g>
  </g>
</svg>
