<svg xmlns="http://www.w3.org/2000/svg" width="32.072" height="28.696" viewBox="0 0 32.072 28.696">
  <path id="saúde" d="M261.528,9.311a8.464,8.464,0,0,0-10.281-2.17A9.593,9.593,0,0,0,248.2,9.457a9.563,9.563,0,0,0-3.032-2.311,8.437,8.437,0,0,0-10.224,2.08,9.682,9.682,0,0,0,0,13.578L246.1,34.071a2.955,2.955,0,0,0,4.2,0l11.151-11.264a9.66,9.66,0,0,0,.075-13.494M259.56,20.893,248.409,32.157a.292.292,0,0,1-.416,0l-9.742-9.84h3.415a1.339,1.339,0,0,0,1.2-.748l1.116-2.256,2.159,5.454a1.333,1.333,0,0,0,2.313.308l2.048-2.759h2.6a1.352,1.352,0,0,0,0-2.7h-3.266a1.329,1.329,0,0,0-1.07.541l-1.021,1.375-2.382-6.016a1.334,1.334,0,0,0-2.44-.1l-2.08,4.2h-5a7.014,7.014,0,0,1,1.072-8.556A5.82,5.82,0,0,1,244,9.579a6.926,6.926,0,0,1,3.036,2.863,1.331,1.331,0,0,0,2.329,0,6.937,6.937,0,0,1,3.052-2.868,5.86,5.86,0,0,1,7.145,1.567,6.944,6.944,0,0,1,0,9.752" transform="translate(-232.165 -6.251)" fill="#e51d35"/>
</svg>
