<svg xmlns="http://www.w3.org/2000/svg" width="30.881" height="30.88" viewBox="0 0 30.881 30.88">
  <path id="tecnologia" d="M343.567,16.658a5.319,5.319,0,0,0-2.22-3.452c-.078-.052-.169-.117-.26-.169a4.168,4.168,0,0,0-1.156-.441l-.169-.039.039-.156a4.69,4.69,0,0,0,.169-1.272,3.719,3.719,0,0,0-1.337-2.946,4.2,4.2,0,0,0-2.96-.934l-.156.013-.026-.143A3.436,3.436,0,0,0,335,5.744,4.158,4.158,0,0,0,332.063,3.9a4.812,4.812,0,0,0-3.35.662l-.052.039c-.415.273-.48.273-.9,0l-.052-.039a4.826,4.826,0,0,0-3.35-.662,4.157,4.157,0,0,0-2.934,1.843,3.436,3.436,0,0,0-.493,1.376l-.026.143-.156-.013a4.2,4.2,0,0,0-2.96.934,3.719,3.719,0,0,0-1.337,2.946,4.69,4.69,0,0,0,.169,1.272l.039.156-.169.039a4.168,4.168,0,0,0-1.156.441,5.352,5.352,0,0,0-1.779,7.358,1.783,1.783,0,0,0,.169.26,5.93,5.93,0,0,0,2.012,1.752l.169.091-.1.143a5.25,5.25,0,0,0-.532.9,5.7,5.7,0,0,0-.182,4.166,5.1,5.1,0,0,0,3.012,3.231,6.118,6.118,0,0,0,3.48.208l.182-.039.013.182a4.19,4.19,0,0,0,.545,1.752A3.378,3.378,0,0,0,325.1,34.71a4.273,4.273,0,0,0,3-1.025l.1-.091.117.091a4.294,4.294,0,0,0,3,1.025,3.378,3.378,0,0,0,2.778-1.674,4.133,4.133,0,0,0,.545-1.752l.013-.182.182.039a6.119,6.119,0,0,0,3.48-.208,5.083,5.083,0,0,0,3.012-3.218,5.8,5.8,0,0,0-.182-4.179,4.7,4.7,0,0,0-.532-.882l-.1-.156.169-.091a5.93,5.93,0,0,0,2.013-1.752,5.265,5.265,0,0,0,.87-4m-19.813-.74a1.248,1.248,0,0,0,.9.376,1.873,1.873,0,0,1,1.74,1.194,5.988,5.988,0,0,1,.558,2.518v1.518l-.234-.13a4.21,4.21,0,0,0-2.012-.506h-.039a1.259,1.259,0,1,0,0,2.518,1.868,1.868,0,0,1,1.727,1.207,6.146,6.146,0,0,1,.571,2.5l-.013,3.647a1.5,1.5,0,0,1-.545,1.064,1.587,1.587,0,0,1-1.013.363h-.13a.94.94,0,0,1-.727-.376,2.981,2.981,0,0,1-.078-2.232,1.339,1.339,0,0,0-.078-.844,1.252,1.252,0,0,0-.7-.662,1.232,1.232,0,0,0-.961.039,4.816,4.816,0,0,1-3.687.467,2.576,2.576,0,0,1-1.545-1.674,3.26,3.26,0,0,1,.091-2.323,1.958,1.958,0,0,1,1.571-1.194,1.254,1.254,0,0,0,1.1-1.077A1.273,1.273,0,0,0,319.17,20.9a4.878,4.878,0,0,1-3.376-1.7,2.82,2.82,0,0,1,.779-3.958,1.51,1.51,0,0,1,1.7.13,1.228,1.228,0,0,0,1.48-.026,1.263,1.263,0,0,0,.493-.831,1.277,1.277,0,0,0-.26-.934,4.5,4.5,0,0,1-1.013-2.427,1.249,1.249,0,0,1,.428-1.025,1.728,1.728,0,0,1,2.22.091,1.234,1.234,0,0,0,1.454.286,1.269,1.269,0,0,0,.61-1.674c-.4-.947-.286-1.479-.1-1.765a1.64,1.64,0,0,1,1.194-.675,2.363,2.363,0,0,1,1.558.286,1.374,1.374,0,0,1,.623,1.22l-.013,6.5-.247-.13a4.273,4.273,0,0,0-2-.506h-.052a1.286,1.286,0,0,0-1.259,1.259,1.266,1.266,0,0,0,.363.9m16.892,3.27a4.914,4.914,0,0,1-3.4,1.726,1.249,1.249,0,0,0-.818.48,1.268,1.268,0,0,0-.247.934,1.254,1.254,0,0,0,1.1,1.077,1.91,1.91,0,0,1,1.571,1.194,3.257,3.257,0,0,1,.091,2.323,2.611,2.611,0,0,1-1.519,1.661,4.808,4.808,0,0,1-3.713-.467,1.269,1.269,0,0,0-1.662.623,1.339,1.339,0,0,0-.078.844,3.015,3.015,0,0,1-.078,2.245.928.928,0,0,1-.727.363.533.533,0,0,1-.143.013,1.565,1.565,0,0,1-1.545-1.441l-.013-3.647a6.045,6.045,0,0,1,.571-2.518,1.875,1.875,0,0,1,1.727-1.194,1.259,1.259,0,1,0,0-2.518h-.039a4.211,4.211,0,0,0-2.012.506l-.234.13V20.006a5.907,5.907,0,0,1,.571-2.531,1.85,1.85,0,0,1,1.727-1.181,1.265,1.265,0,0,0,0-2.531h-.052a4.273,4.273,0,0,0-2,.506l-.247.13V7.9a1.374,1.374,0,0,1,.623-1.22,2.386,2.386,0,0,1,1.571-.286,1.667,1.667,0,0,1,1.182.662,1.923,1.923,0,0,1-.091,1.778,1.236,1.236,0,0,0-.039.96,1.3,1.3,0,0,0,.662.7,1.27,1.27,0,0,0,1.415-.26,1.711,1.711,0,0,1,2.207-.1,1.238,1.238,0,0,1,.441,1.025,4.5,4.5,0,0,1-1.013,2.44,1.256,1.256,0,0,0,1.727,1.778,1.489,1.489,0,0,1,1.688-.13,2.715,2.715,0,0,1,1.194,1.7,2.66,2.66,0,0,1-.4,2.245" transform="translate(-312.775 -3.835)" fill="#e51d35" fill-rule="evenodd"/>
</svg>
