<svg xmlns="http://www.w3.org/2000/svg" width="29.589" height="34.521" viewBox="0 0 29.589 34.521">
  <path id="televisão" d="M220.753,8.549a5.8,5.8,0,0,0-4.074-1.7H210.7l4.617-4.674a1.285,1.285,0,0,0,0-1.8,1.25,1.25,0,0,0-1.781,0l-5.876,5.949L201.778.374a1.25,1.25,0,0,0-1.781,0,1.287,1.287,0,0,0,0,1.8l4.617,4.674h-6.005a5.689,5.689,0,0,0-4.07,1.718,5.835,5.835,0,0,0-1.678,4.125V24.135a5.83,5.83,0,0,0,1.7,4.12,5.684,5.684,0,0,0,4.06,1.7H216.7a5.687,5.687,0,0,0,4.069-1.717,5.827,5.827,0,0,0,1.678-4.125V12.668a5.83,5.83,0,0,0-1.7-4.119m-.823,15.566a3.282,3.282,0,0,1-.944,2.322,3.2,3.2,0,0,1-2.288.965H198.622a3.2,3.2,0,0,1-2.286-.955,3.291,3.291,0,0,1-.955-2.336V12.69a3.284,3.284,0,0,1,.945-2.322,3.213,3.213,0,0,1,2.308-.967H216.69a3.27,3.27,0,0,1,3.241,3.293Zm-6.5,9.131a1.269,1.269,0,0,1-1.26,1.275h-9.025a1.275,1.275,0,0,1,0-2.551h9.025a1.269,1.269,0,0,1,1.26,1.275" transform="translate(-192.861 -0.001)" fill="#e51d35"/>
</svg>
