<svg xmlns="http://www.w3.org/2000/svg" width="50" height="50" viewBox="0 0 50 50">
  <g id="VIT" transform="translate(-1035.846 -3820.846)">
    <rect id="Retângulo_5369" data-name="Retângulo 5369" width="50" height="50" transform="translate(1035.846 3820.846)" fill="#098838" opacity="0"/>
    <g id="Tabelas_e_Jogos_do_Brasileirão_Série_A_2024___ge___brasileirão_série_a___ge-13" data-name="Tabelas e Jogos do Brasileirão Série A 2024 _ ge _ brasileirão série a _ ge-13" transform="translate(1011.546 3822.436)">
      <path id="Caminho_2311" data-name="Caminho 2311" d="M69.282,12.764a9.725,9.725,0,0,1,.3,3.3Q68.673,35.6,51.274,44.279,33.873,35.6,32.965,16.066a9.746,9.746,0,0,1,.3-3.3A24.706,24.706,0,0,0,46.771,7.137q2.38-2.267,4.5-4.727a33,33,0,0,0,8.1,7.278A25.868,25.868,0,0,0,69.282,12.764Z" transform="translate(-1.497)" fill="#0c0c0c" fill-rule="evenodd"/>
      <path id="Caminho_2312" data-name="Caminho 2312" d="M61.071,18.391q1.658,1.77,3.452,3.526a25.306,25.306,0,0,0,14.106,6.3q.479,20.319-17.408,29.788Q43.334,48.539,43.814,28.22a24.676,24.676,0,0,0,17.258-9.83Z" transform="translate(-11.445 -14.63)" fill="#efeaea" fill-rule="evenodd"/>
      <path id="Caminho_2313" data-name="Caminho 2313" d="M81.83,48.691H72.977q1.609-3.52,3.226-7.053a7.081,7.081,0,0,1,1.726-1.726q-1.706-.759-3.377-1.576a18.735,18.735,0,0,1-.3,2.851q-1.637,3.8-3.377,7.5H68.925a5.527,5.527,0,0,0-.15-1.8,6.356,6.356,0,0,1-2.1.825q-1.649.113-3.3.075.037-1.727-.075-3.452a12.556,12.556,0,0,0-1.726.75,21.833,21.833,0,0,0-.15,3.6h-.9a19.3,19.3,0,0,0-.075-2.4q-.988-2.353-2.1-4.652a14.269,14.269,0,0,1-.675-3.151q-1.585.691-3.151,1.425a7.082,7.082,0,0,1,1.726,1.726q1.636,3.524,3.226,7.053H55.718a6.029,6.029,0,0,1,1.8-2.1q-.435-.891-.825-1.8a44.917,44.917,0,0,0-3.677,3.9h-2.4a37.612,37.612,0,0,1-1.351-10.2A26.4,26.4,0,0,0,66.222,29.03,26.408,26.408,0,0,0,83.18,38.484a37.586,37.586,0,0,1-1.351,10.2Z" transform="translate(-16.447 -24.371)" fill="#e00c02" fill-rule="evenodd"/>
      <path id="Caminho_2314" data-name="Caminho 2314" d="M182.491,117.823q5.364-.224,10.8-.15a27.214,27.214,0,0,1-.075,2.851,5.391,5.391,0,0,0-2.476-.976q-2.7-.113-5.4-.075v2.251a4.57,4.57,0,0,0-1.8.45,27.271,27.271,0,0,1-.225-2.851,3.667,3.667,0,0,0-.825-1.5Z" transform="translate(-138.417 -105.508)" fill="#fefcfb" fill-rule="evenodd"/>
      <path id="Caminho_2315" data-name="Caminho 2315" d="M117.443,151.165a8.5,8.5,0,0,1-.15,2.251,21.964,21.964,0,0,0-.9-2.251q-1.59-3.529-3.226-7.053a7.082,7.082,0,0,0-1.726-1.726q1.566-.735,3.151-1.425a14.306,14.306,0,0,0,.675,3.151q1.113,2.3,2.1,4.652a19.308,19.308,0,0,1,.075,2.4Z" transform="translate(-73.369 -126.845)" fill="#fefaf9" fill-rule="evenodd"/>
      <path id="Caminho_2316" data-name="Caminho 2316" d="M284.4,149.535l-1.875,4.352a5.292,5.292,0,0,1-2.326.375q1.116-2.337,2.1-4.727,1.739-3.7,3.377-7.5a18.63,18.63,0,0,0,.3-2.851q1.671.816,3.377,1.576a7.082,7.082,0,0,0-1.726,1.726q-1.617,3.533-3.226,7.053Z" transform="translate(-227.872 -125.215)" fill="#fcf8f8" fill-rule="evenodd"/>
      <path id="Caminho_2317" data-name="Caminho 2317" d="M31.768,124.97a9.725,9.725,0,0,0-.3,3.3,18.315,18.315,0,0,1-.15-3.3Z" transform="translate(0 -112.206)" fill-rule="evenodd"/>
      <path id="Caminho_2318" data-name="Caminho 2318" d="M463.16,124.97h.45a18.164,18.164,0,0,1-.15,3.3A9.747,9.747,0,0,0,463.16,124.97Z" transform="translate(-395.375 -112.206)" fill-rule="evenodd"/>
      <path id="Caminho_2319" data-name="Caminho 2319" d="M182.282,171.061q2.252-.037,4.5.075a11.65,11.65,0,0,1,3.3.75q-.38.873-.825,1.726a14.653,14.653,0,0,0-11.405.9,3.1,3.1,0,0,1-.675-1.8A16.685,16.685,0,0,1,182.282,171.061Z" transform="translate(-133.556 -154.394)" fill="#fefafa" fill-rule="evenodd"/>
      <path id="Caminho_2320" data-name="Caminho 2320" d="M363.315,199.571a9.843,9.843,0,0,1,2.4,1.651l-.976,1.951a5.606,5.606,0,0,0-1.951-1.8,7.377,7.377,0,0,1,.525-1.8Z" transform="translate(-303.485 -180.503)" fill="#fef7f7" fill-rule="evenodd"/>
      <path id="Caminho_2321" data-name="Caminho 2321" d="M192.524,214.592a6.444,6.444,0,0,1-.15,1.951,8.365,8.365,0,0,0-1.951-.825q-1.723-.113-3.452-.075V226a12.248,12.248,0,0,1-2.7-.15,5.965,5.965,0,0,0,.675-1.651q.113-4.8.075-9.6a21.651,21.651,0,0,1,.15-3.6,12.458,12.458,0,0,1,1.726-.75q.113,1.723.075,3.452,1.652.037,3.3-.075a6.357,6.357,0,0,0,2.1-.825,5.549,5.549,0,0,1,.15,1.8Z" transform="translate(-140.047 -190.272)" fill="#f8f5f5" fill-rule="evenodd"/>
      <path id="Caminho_2322" data-name="Caminho 2322" d="M96.382,219.471a12.354,12.354,0,0,0,4.727,4.052,4.98,4.98,0,0,1-.075,2.1A21.486,21.486,0,0,1,96.982,223a36.3,36.3,0,0,1-3.3-3.526,44.8,44.8,0,0,1,3.677-3.9q.392.91.825,1.8a6.029,6.029,0,0,0-1.8,2.1Z" transform="translate(-57.11 -195.152)" fill="#fbf9f9" fill-rule="evenodd"/>
      <path id="Caminho_2323" data-name="Caminho 2323" d="M65.26,261.75h2.4a36.2,36.2,0,0,0,3.3,3.526,21.57,21.57,0,0,0,4.052,2.627,4.994,4.994,0,0,0,.075-2.1,12.348,12.348,0,0,1-4.727-4.052h3.752a22.031,22.031,0,0,1,.9,2.251.166.166,0,0,0,.15.15,9.734,9.734,0,0,0,.15-2.4h.75q.038,4.8-.075,9.6A5.965,5.965,0,0,1,75.316,273a.166.166,0,0,0-.15.15,6.927,6.927,0,0,0,2.851,0V262.8q1.727-.037,3.452.075a8.365,8.365,0,0,1,1.951.825,6.473,6.473,0,0,0,.15-1.951h1.951q-.985,2.39-2.1,4.727a5.291,5.291,0,0,0,2.326-.375q.942-2.182,1.875-4.352h8.854a29.047,29.047,0,0,1-15.607,18.308A29.052,29.052,0,0,1,65.26,261.75Z" transform="translate(-31.091 -237.43)" fill="#030303" fill-rule="evenodd"/>
      <path id="Caminho_2324" data-name="Caminho 2324" d="M180.87,261.75h.15a9.693,9.693,0,0,1-.15,2.4.166.166,0,0,1-.15-.15A8.542,8.542,0,0,0,180.87,261.75Z" transform="translate(-136.797 -237.43)" fill="#3f3f3f" fill-rule="evenodd"/>
      <path id="Caminho_2325" data-name="Caminho 2325" d="M239.632,286.576a.274.274,0,0,1,.3.15,12.391,12.391,0,0,1,.75,1.726,15.807,15.807,0,0,1-9,3.6,17.59,17.59,0,0,1-4.727-.225,4.312,4.312,0,0,1,.075-1.951,15.456,15.456,0,0,0,11.405-2.026,14.2,14.2,0,0,0,1.2-1.276Z" transform="translate(-179.051 -260.155)" fill="#f7f7f7" fill-rule="evenodd"/>
      <path id="Caminho_2326" data-name="Caminho 2326" d="M226.811,359.45a2.763,2.763,0,0,1,1.05.3,7.6,7.6,0,0,0,.9,1.8,9.444,9.444,0,0,0,.9-1.726,7.419,7.419,0,0,1,2.1,0q-1.471,3.206-3,6.378-1-1.916-1.876-3.9A27.206,27.206,0,0,1,226.811,359.45Z" transform="translate(-178.985 -326.876)" fill="#f6f6f6" fill-rule="evenodd"/>
      <path id="Caminho_2327" data-name="Caminho 2327" d="M286.3,367.472a10.93,10.93,0,0,1-2.551-.15,5.906,5.906,0,0,1,.675-1.651q.869-.428,1.726-.9a12.3,12.3,0,0,1,.15,2.7Z" transform="translate(-231.122 -331.747)" fill="#fbfbfb" fill-rule="evenodd"/>
      <path id="Caminho_2328" data-name="Caminho 2328" d="M182.65,394.97a12.256,12.256,0,0,0,2.7.15,6.929,6.929,0,0,1-2.851,0A.166.166,0,0,1,182.65,394.97Z" transform="translate(-138.426 -359.396)" fill="#7d7d7d" fill-rule="evenodd"/>
      <path id="Caminho_2329" data-name="Caminho 2329" d="M282.13,394.97a10.934,10.934,0,0,0,2.551.15,6.225,6.225,0,0,1-2.7,0,.166.166,0,0,1,.15-.15Z" transform="translate(-229.502 -359.396)" fill="#828282" fill-rule="evenodd"/>
    </g>
  </g>
</svg>
